<?xml version="1.0" encoding="UTF-8"?>
<svg id="Layer_2" data-name="Layer 2" xmlns="http://www.w3.org/2000/svg" viewBox="0 0 126.46 94.28">
  <defs>
    <style>
      .cls-1 {
        fill: #d9d9ff;
      }

      .cls-1, .cls-2 {
        stroke-width: 0px;
      }

      .cls-3 {
        stroke: #352a82;
        stroke-linecap: round;
        stroke-width: 2px;
      }

      .cls-3, .cls-4 {
        fill: none;
        stroke-miterlimit: 10;
      }

      .cls-4, .cls-5 {
        stroke: #312775;
      }

      .cls-2 {
        fill: #f8aeb8;
      }

      .cls-5 {
        fill: #fff;
        stroke-linejoin: round;
        stroke-width: 3px;
      }
    </style>
  </defs>
  <g id="home_page" data-name="home page">
    <g>
      <path class="cls-1" d="M50.22,87.75c10.1,2.85,20.7,3.08,30.1-2.1,15.41-8.5,28.43-28.67,28.97-46.3.57-18.72-14.68-36.6-33.26-39C49.78-3.03,31.63,18.69,13.4,33.56c-31,25.28,14.47,47.87,36.82,54.19Z"/>
      <circle class="cls-5" cx="60.96" cy="49.88" r="29.43"/>
      <polyline class="cls-4" points="47.36 35.88 62.19 51.15 74.19 51.15"/>
      <path class="cls-2" d="M46.65,18.61c-9.07,3.03-16.21,10.29-19.08,19.43-4.06-2.44-6.78-6.9-6.78-11.99,0-7.73,6.27-14,14-14,5,0,9.38,2.62,11.86,6.56Z"/>
      <path class="cls-2" d="M99.79,25.05c0,5.16-2.79,9.67-6.95,12.09-2.83-9.13-9.91-16.4-18.94-19.47,2.46-3.97,6.87-6.62,11.89-6.62,7.73,0,14,6.27,14,14Z"/>
      <g>
        <line class="cls-3" x1="119" y1="31.18" x2="123.86" y2="23.11"/>
        <line class="cls-3" x1="125.46" y1="29.58" x2="117.4" y2="24.71"/>
      </g>
      <circle class="cls-3" cx="6.53" cy="87.76" r="5.53"/>
      <g>
        <line class="cls-3" x1="117.18" y1="50.66" x2="118.36" y2="44.19"/>
        <line class="cls-3" x1="121" y1="48.01" x2="114.53" y2="46.83"/>
      </g>
    </g>
  </g>
</svg>