<?xml version="1.0" encoding="UTF-8"?>
<svg id="Layer_2" data-name="Layer 2" xmlns="http://www.w3.org/2000/svg" viewBox="0 0 21.42 20.8">
  <defs>
    <style>
      .cls-1 {
        fill: #fff;
        stroke-width: 0px;
      }

      .cls-2 {
        fill: none;
        stroke: #fff;
        stroke-miterlimit: 10;
        stroke-width: 1.5px;
      }
    </style>
  </defs>
  <g id="results_page" data-name="results page">
    <g>
      <g>
        <line class="cls-2" x1="11.93" y1="9.6" x2="17.09" y2="4.44"/>
        <polygon class="cls-1" points="16.85 7.38 16.85 4.68 14.15 4.68 15.3 3.53 18 3.53 18 6.23 16.85 7.38"/>
      </g>
      <g>
        <line class="cls-2" x1="9.56" y1="9.6" x2="4.41" y2="4.44"/>
        <polygon class="cls-1" points="7.34 4.68 4.64 4.68 4.64 7.38 3.5 6.23 3.5 3.53 6.2 3.53 7.34 4.68"/>
      </g>
      <g>
        <line class="cls-2" x1="11.93" y1="11.44" x2="17.09" y2="16.59"/>
        <polygon class="cls-1" points="14.15 16.36 16.85 16.36 16.85 13.66 18 14.81 18 17.5 15.3 17.5 14.15 16.36"/>
      </g>
      <g>
        <line class="cls-2" x1="9.56" y1="11.44" x2="4.41" y2="16.59"/>
        <polygon class="cls-1" points="4.64 13.66 4.64 16.36 7.34 16.36 6.2 17.5 3.5 17.5 3.5 14.81 4.64 13.66"/>
      </g>
      <polyline class="cls-2" points="16.34 .75 20.67 .75 20.67 4.89"/>
      <polyline class="cls-2" points="20.57 15.72 20.57 20.05 16.43 20.05"/>
      <polyline class="cls-2" points="5.08 .75 .75 .75 .75 4.89"/>
      <polyline class="cls-2" points=".84 15.72 .84 20.05 4.99 20.05"/>
    </g>
  </g>
</svg>