<?xml version="1.0" encoding="UTF-8"?>
<svg id="Layer_2" data-name="Layer 2" xmlns="http://www.w3.org/2000/svg" viewBox="0 0 522.67 327.08">
  <defs>
    <style>
      .cls-1 {
        fill: #d9d9ff;
      }

      .cls-1, .cls-2, .cls-3 {
        stroke-width: 0px;
      }

      .cls-4, .cls-5, .cls-6, .cls-7 {
        stroke-miterlimit: 10;
      }

      .cls-4, .cls-5, .cls-7 {
        fill: none;
      }

      .cls-4, .cls-6 {
        stroke-width: 3px;
      }

      .cls-4, .cls-6, .cls-7 {
        stroke: #312775;
      }

      .cls-5 {
        stroke: #352a82;
        stroke-linecap: round;
        stroke-width: 2px;
      }

      .cls-2, .cls-6 {
        fill: #fff;
      }

      .cls-3 {
        fill: #f8aeb8;
      }
    </style>
  </defs>
  <g id="home_page" data-name="home page">
    <g>
      <path class="cls-1" d="M346.92,20.77c-66.91,39.77-104.33,80.95-183.59,98.31-37.35,8.18-76.17-9.55-113.55-10.03-55-.71-42.16,116.53-32.99,124.04,6.82,5.58,10.11,14.11,14.32,21.76,23.38,42.44,70.37,64.55,115.11,70.46,85.18,11.23,139.15-34.67,228-30,63.74,3.35,118.09-15.15,132.69-85.97,8.17-39.62,1.63-79.8-11.23-117.67-10.28-30.26-21.19-65.99-50.66-83.1-16.51-9.59-36.49-10.43-54.65-5.97-15.69,3.85-30.02,10.19-43.45,18.17Z"/>
      <line class="cls-4" x1="26.13" y1="263.18" x2="485.23" y2="263.18"/>
      <polygon class="cls-2" points="210.63 194.28 281.53 194.28 281.53 171.28 258.83 171.28 258.83 149.08 235.83 149.08 235.83 125.38 210.83 125.38 210.63 194.28"/>
      <rect class="cls-6" x="40.73" y="77.78" width="110" height="185"/>
      <rect class="cls-6" x="150.83" y="124.98" width="60" height="137.3"/>
      <rect class="cls-3" x="77.23" y="216.28" width="38" height="20.5"/>
      <rect class="cls-3" x="77.23" y="187.48" width="38" height="20.5"/>
      <rect class="cls-3" x="77.23" y="158.15" width="38" height="20.5"/>
      <rect class="cls-3" x="77.23" y="129.58" width="38" height="20.5"/>
      <rect class="cls-3" x="77.23" y="101.28" width="38" height="20.5"/>
      <rect class="cls-6" x="210.63" y="194.28" width="119.7" height="68"/>
      <polyline class="cls-4" points="235.83 125.38 235.83 149.08 258.83 149.08 258.83 171.28 281.53 171.28 281.53 194.58"/>
      <g>
        <rect class="cls-7" x="114.73" y="86.78" width="27" height="167"/>
        <line class="cls-7" x1="124.73" y1="138.28" x2="124.73" y2="116.28"/>
        <line class="cls-7" x1="124.73" y1="196.28" x2="124.73" y2="173.28"/>
        <line class="cls-7" x1="124.73" y1="253.28" x2="124.73" y2="231.28"/>
        <line class="cls-7" x1="124.73" y1="225.28" x2="124.73" y2="202.28"/>
        <line class="cls-7" x1="124.73" y1="167.28" x2="124.73" y2="144.28"/>
        <line class="cls-7" x1="124.73" y1="109.28" x2="124.73" y2="87.28"/>
        <line class="cls-7" x1="132.73" y1="138.28" x2="132.73" y2="116.28"/>
        <line class="cls-7" x1="132.73" y1="196.28" x2="132.73" y2="173.28"/>
        <line class="cls-7" x1="132.73" y1="253.28" x2="132.73" y2="231.28"/>
        <line class="cls-7" x1="132.73" y1="225.28" x2="132.73" y2="202.28"/>
        <line class="cls-7" x1="132.73" y1="167.28" x2="132.73" y2="144.28"/>
        <line class="cls-7" x1="132.73" y1="109.28" x2="132.73" y2="87.28"/>
        <g>
          <line class="cls-7" x1="114.23" y1="108.78" x2="141.83" y2="108.78"/>
          <line class="cls-7" x1="114.23" y1="115.78" x2="141.83" y2="115.78"/>
        </g>
        <g>
          <line class="cls-7" x1="114.23" y1="137.78" x2="141.83" y2="137.78"/>
          <line class="cls-7" x1="114.23" y1="144.78" x2="141.83" y2="144.78"/>
        </g>
        <g>
          <line class="cls-7" x1="114.23" y1="166.78" x2="141.83" y2="166.78"/>
          <line class="cls-7" x1="114.23" y1="173.78" x2="141.83" y2="173.78"/>
        </g>
        <g>
          <line class="cls-7" x1="114.23" y1="195.78" x2="141.83" y2="195.78"/>
          <line class="cls-7" x1="114.23" y1="202.78" x2="141.83" y2="202.78"/>
        </g>
        <g>
          <line class="cls-7" x1="114.23" y1="224.78" x2="141.83" y2="224.78"/>
          <line class="cls-7" x1="114.23" y1="231.78" x2="141.83" y2="231.78"/>
        </g>
      </g>
      <g>
        <rect class="cls-7" x="50.73" y="86.78" width="27" height="167"/>
        <line class="cls-7" x1="59.73" y1="138.28" x2="59.73" y2="116.28"/>
        <line class="cls-7" x1="59.73" y1="196.28" x2="59.73" y2="173.28"/>
        <line class="cls-7" x1="59.73" y1="253.28" x2="59.73" y2="231.28"/>
        <line class="cls-7" x1="59.73" y1="225.28" x2="59.73" y2="202.28"/>
        <line class="cls-7" x1="59.73" y1="167.28" x2="59.73" y2="144.28"/>
        <line class="cls-7" x1="59.73" y1="109.28" x2="59.73" y2="87.28"/>
        <line class="cls-7" x1="67.73" y1="138.28" x2="67.73" y2="116.28"/>
        <line class="cls-7" x1="67.73" y1="196.28" x2="67.73" y2="173.28"/>
        <line class="cls-7" x1="67.73" y1="253.28" x2="67.73" y2="231.28"/>
        <line class="cls-7" x1="67.73" y1="225.28" x2="67.73" y2="202.28"/>
        <line class="cls-7" x1="67.73" y1="167.28" x2="67.73" y2="144.28"/>
        <line class="cls-7" x1="67.73" y1="109.28" x2="67.73" y2="87.28"/>
        <g>
          <line class="cls-7" x1="50.73" y1="108.78" x2="78.13" y2="108.78"/>
          <line class="cls-7" x1="50.73" y1="115.78" x2="78.13" y2="115.78"/>
        </g>
        <g>
          <line class="cls-7" x1="50.73" y1="137.78" x2="78.13" y2="137.78"/>
          <line class="cls-7" x1="50.73" y1="144.78" x2="78.13" y2="144.78"/>
        </g>
        <g>
          <line class="cls-7" x1="50.73" y1="166.78" x2="78.13" y2="166.78"/>
          <line class="cls-7" x1="50.73" y1="173.78" x2="78.13" y2="173.78"/>
        </g>
        <g>
          <line class="cls-7" x1="50.73" y1="195.78" x2="78.13" y2="195.78"/>
          <line class="cls-7" x1="50.73" y1="202.78" x2="78.13" y2="202.78"/>
        </g>
        <g>
          <line class="cls-7" x1="50.73" y1="224.78" x2="78.13" y2="224.78"/>
          <line class="cls-7" x1="50.73" y1="231.78" x2="78.13" y2="231.78"/>
        </g>
      </g>
      <rect class="cls-4" x="32.43" y="71.68" width="127" height="5.6"/>
      <g>
        <rect class="cls-7" x="161.73" y="138.8" width="38" height="109"/>
        <line class="cls-7" x1="175.73" y1="190.3" x2="175.73" y2="168.3"/>
        <line class="cls-7" x1="175.73" y1="248.3" x2="175.73" y2="226.3"/>
        <line class="cls-7" x1="175.73" y1="219.3" x2="175.73" y2="197.3"/>
        <line class="cls-7" x1="175.73" y1="161.3" x2="175.73" y2="139.3"/>
        <line class="cls-7" x1="186.73" y1="190.3" x2="186.73" y2="168.3"/>
        <line class="cls-7" x1="186.73" y1="248.3" x2="186.73" y2="226.3"/>
        <line class="cls-7" x1="186.73" y1="219.3" x2="186.73" y2="197.3"/>
        <line class="cls-7" x1="186.73" y1="161.3" x2="186.73" y2="139.3"/>
        <g>
          <line class="cls-7" x1="162.03" y1="161.8" x2="200.23" y2="161.8"/>
          <line class="cls-7" x1="162.03" y1="167.8" x2="200.23" y2="167.8"/>
        </g>
        <g>
          <line class="cls-7" x1="162.03" y1="190.8" x2="200.23" y2="190.8"/>
          <line class="cls-7" x1="162.03" y1="196.8" x2="200.23" y2="196.8"/>
        </g>
        <g>
          <line class="cls-7" x1="162.03" y1="218.8" x2="200.23" y2="218.8"/>
          <line class="cls-7" x1="162.03" y1="225.8" x2="200.23" y2="225.8"/>
        </g>
      </g>
      <rect class="cls-6" x="150.93" y="119.35" width="92.23" height="5.6"/>
      <polyline class="cls-4" points="235.16 135.61 253.16 135.61 253.16 149.61"/>
      <line class="cls-4" x1="253.16" y1="135.61" x2="259.49" y2="135.61"/>
      <polyline class="cls-4" points="258.26 157.11 276.26 157.11 276.26 171.11"/>
      <line class="cls-4" x1="276.26" y1="157.11" x2="282.59" y2="157.11"/>
      <polyline class="cls-4" points="281.76 179.61 299.76 179.61 299.76 193.61"/>
      <line class="cls-4" x1="299.76" y1="179.61" x2="306.09" y2="179.61"/>
      <polyline class="cls-3" points="234.43 150.48 218.43 150.48 218.43 143.18 234.43 143.18"/>
      <polyline class="cls-3" points="257.23 172.78 241.23 172.78 241.23 165.48 257.23 165.48"/>
      <polyline class="cls-3" points="279.93 192.88 263.93 192.88 263.93 185.58 279.93 185.58"/>
      <g>
        <rect class="cls-7" x="289.73" y="202.8" width="27" height="51"/>
        <line class="cls-7" x1="298.73" y1="254.3" x2="298.73" y2="232.3"/>
        <line class="cls-7" x1="298.73" y1="225.3" x2="298.73" y2="203.3"/>
        <line class="cls-7" x1="306.73" y1="254.3" x2="306.73" y2="232.3"/>
        <line class="cls-7" x1="306.73" y1="225.3" x2="306.73" y2="203.3"/>
        <g>
          <line class="cls-7" x1="289.63" y1="225.8" x2="316.83" y2="225.8"/>
          <line class="cls-7" x1="289.63" y1="231.8" x2="316.83" y2="231.8"/>
        </g>
        <rect class="cls-7" x="224.73" y="202.8" width="27" height="51"/>
        <line class="cls-7" x1="234.73" y1="254.3" x2="234.73" y2="232.3"/>
        <line class="cls-7" x1="234.73" y1="225.3" x2="234.73" y2="203.3"/>
        <line class="cls-7" x1="242.73" y1="254.3" x2="242.73" y2="232.3"/>
        <line class="cls-7" x1="242.73" y1="225.3" x2="242.73" y2="203.3"/>
        <g>
          <line class="cls-7" x1="224.23" y1="225.8" x2="251.43" y2="225.8"/>
          <line class="cls-7" x1="224.23" y1="231.8" x2="251.43" y2="231.8"/>
        </g>
        <g>
          <line class="cls-7" x1="252.43" y1="217.8" x2="290.23" y2="217.8"/>
          <line class="cls-7" x1="252.43" y1="235.8" x2="290.23" y2="235.8"/>
        </g>
      </g>
      <g>
        <rect class="cls-2" x="343.98" y="230.3" width="49.25" height="25.5"/>
        <line class="cls-4" x1="342.66" y1="256.05" x2="342.66" y2="229.11"/>
        <line class="cls-4" x1="395" y1="229.11" x2="395" y2="256.05"/>
        <polyline class="cls-6" points="340.15 163.45 337.33 163.45 337.33 157.81 399.33 157.81 399.33 163.45 397.2 163.45"/>
        <polyline class="cls-6" points="342.66 167.99 340.15 167.99 340.15 163.45 397.2 163.45 397.2 167.99 395 167.99"/>
        <polyline class="cls-6" points="342.66 225.66 342.66 167.99 395 167.99 395 225.66"/>
        <rect class="cls-6" x="339.52" y="224.36" width="58.3" height="4.75"/>
        <rect class="cls-6" x="341.09" y="257.31" width="55.17" height="5.07"/>
        <g>
          <polyline class="cls-3" points="353.23 188.8 349.73 188.8 349.73 192.8 363.73 192.8 363.73 188.8 361.23 188.8"/>
          <rect class="cls-7" x="352.73" y="175.8" width="8" height="13"/>
          <line class="cls-7" x1="350.23" y1="176.8" x2="353.23" y2="176.8"/>
          <line class="cls-7" x1="361.23" y1="176.8" x2="363.23" y2="176.8"/>
          <line class="cls-7" x1="353.23" y1="181.8" x2="360.23" y2="181.8"/>
        </g>
        <g>
          <polyline class="cls-3" points="376.23 188.8 372.73 188.8 372.73 192.8 386.73 192.8 386.73 188.8 384.23 188.8"/>
          <rect class="cls-7" x="375.73" y="175.8" width="8" height="13"/>
          <line class="cls-7" x1="373.23" y1="176.8" x2="376.23" y2="176.8"/>
          <line class="cls-7" x1="384.23" y1="176.8" x2="386.23" y2="176.8"/>
          <line class="cls-7" x1="376.23" y1="181.8" x2="383.23" y2="181.8"/>
        </g>
        <g>
          <polyline class="cls-3" points="353.23 212.8 349.73 212.8 349.73 216.8 363.73 216.8 363.73 212.8 361.23 212.8"/>
          <rect class="cls-7" x="352.73" y="199.8" width="8" height="13"/>
          <line class="cls-7" x1="350.23" y1="200.8" x2="353.23" y2="200.8"/>
          <line class="cls-7" x1="361.23" y1="200.8" x2="363.23" y2="200.8"/>
          <line class="cls-7" x1="353.23" y1="205.8" x2="360.23" y2="205.8"/>
        </g>
        <g>
          <polyline class="cls-3" points="376.23 212.8 372.73 212.8 372.73 216.8 386.73 216.8 386.73 212.8 384.23 212.8"/>
          <rect class="cls-7" x="375.73" y="199.8" width="8" height="13"/>
          <line class="cls-7" x1="373.23" y1="200.8" x2="376.23" y2="200.8"/>
          <line class="cls-7" x1="384.23" y1="200.8" x2="386.23" y2="200.8"/>
          <line class="cls-7" x1="376.23" y1="205.8" x2="383.23" y2="205.8"/>
        </g>
        <g>
          <polyline class="cls-3" points="353.23 247.8 349.73 247.8 349.73 251.8 363.73 251.8 363.73 247.8 361.23 247.8"/>
          <rect class="cls-7" x="352.73" y="234.8" width="8" height="13"/>
          <line class="cls-7" x1="350.23" y1="236.4" x2="353.23" y2="236.4"/>
          <line class="cls-7" x1="361.23" y1="236.4" x2="363.23" y2="236.4"/>
          <line class="cls-7" x1="353.23" y1="239.8" x2="360.23" y2="239.8"/>
        </g>
        <g>
          <polyline class="cls-3" points="376.23 247.8 372.73 247.8 372.73 251.8 386.73 251.8 386.73 247.8 384.23 247.8"/>
          <rect class="cls-7" x="375.73" y="234.8" width="8" height="13"/>
          <line class="cls-7" x1="373.23" y1="236.4" x2="376.23" y2="236.4"/>
          <line class="cls-7" x1="384.23" y1="236.4" x2="386.23" y2="236.4"/>
          <line class="cls-7" x1="376.23" y1="239.8" x2="383.23" y2="239.8"/>
        </g>
      </g>
      <g>
        <rect class="cls-2" x="410.98" y="230.3" width="49.25" height="25.5"/>
        <line class="cls-4" x1="409.66" y1="256.05" x2="409.66" y2="229.11"/>
        <line class="cls-4" x1="462" y1="229.11" x2="462" y2="256.05"/>
        <polyline class="cls-6" points="407.15 163.45 404.33 163.45 404.33 157.81 466.33 157.81 466.33 163.45 464.2 163.45"/>
        <polyline class="cls-6" points="409.66 167.99 407.15 167.99 407.15 163.45 464.2 163.45 464.2 167.99 462 167.99"/>
        <polyline class="cls-6" points="409.66 225.66 409.66 167.99 462 167.99 462 225.66"/>
        <rect class="cls-6" x="406.52" y="224.36" width="58.3" height="4.75"/>
        <rect class="cls-6" x="408.09" y="257.31" width="55.17" height="5.07"/>
        <g>
          <polyline class="cls-3" points="420.23 188.8 416.73 188.8 416.73 192.8 430.73 192.8 430.73 188.8 428.23 188.8"/>
          <rect class="cls-7" x="419.73" y="175.8" width="8" height="13"/>
          <line class="cls-7" x1="417.23" y1="176.8" x2="420.23" y2="176.8"/>
          <line class="cls-7" x1="428.23" y1="176.8" x2="430.23" y2="176.8"/>
          <line class="cls-7" x1="420.23" y1="181.8" x2="427.23" y2="181.8"/>
        </g>
        <g>
          <polyline class="cls-3" points="443.23 188.8 439.73 188.8 439.73 192.8 453.73 192.8 453.73 188.8 451.23 188.8"/>
          <rect class="cls-7" x="442.73" y="175.8" width="8" height="13"/>
          <line class="cls-7" x1="440.23" y1="176.8" x2="443.23" y2="176.8"/>
          <line class="cls-7" x1="451.23" y1="176.8" x2="453.23" y2="176.8"/>
          <line class="cls-7" x1="443.23" y1="181.8" x2="450.23" y2="181.8"/>
        </g>
        <g>
          <polyline class="cls-3" points="420.23 212.8 416.73 212.8 416.73 216.8 430.73 216.8 430.73 212.8 428.23 212.8"/>
          <rect class="cls-7" x="419.73" y="199.8" width="8" height="13"/>
          <line class="cls-7" x1="417.23" y1="200.8" x2="420.23" y2="200.8"/>
          <line class="cls-7" x1="428.23" y1="200.8" x2="430.23" y2="200.8"/>
          <line class="cls-7" x1="420.23" y1="205.8" x2="427.23" y2="205.8"/>
        </g>
        <g>
          <polyline class="cls-3" points="443.23 212.8 439.73 212.8 439.73 216.8 453.73 216.8 453.73 212.8 451.23 212.8"/>
          <rect class="cls-7" x="442.73" y="199.8" width="8" height="13"/>
          <line class="cls-7" x1="440.23" y1="200.8" x2="443.23" y2="200.8"/>
          <line class="cls-7" x1="451.23" y1="200.8" x2="453.23" y2="200.8"/>
          <line class="cls-7" x1="443.23" y1="205.8" x2="450.23" y2="205.8"/>
        </g>
        <g>
          <polyline class="cls-3" points="420.23 247.8 416.73 247.8 416.73 251.8 430.73 251.8 430.73 247.8 428.23 247.8"/>
          <rect class="cls-7" x="419.73" y="234.8" width="8" height="13"/>
          <line class="cls-7" x1="417.23" y1="236.4" x2="420.23" y2="236.4"/>
          <line class="cls-7" x1="428.23" y1="236.4" x2="430.23" y2="236.4"/>
          <line class="cls-7" x1="420.23" y1="239.8" x2="427.23" y2="239.8"/>
        </g>
        <g>
          <polyline class="cls-3" points="443.23 247.8 439.73 247.8 439.73 251.8 453.73 251.8 453.73 247.8 451.23 247.8"/>
          <rect class="cls-7" x="442.73" y="234.8" width="8" height="13"/>
          <line class="cls-7" x1="440.23" y1="236.4" x2="443.23" y2="236.4"/>
          <line class="cls-7" x1="451.23" y1="236.4" x2="453.23" y2="236.4"/>
          <line class="cls-7" x1="443.23" y1="239.8" x2="450.23" y2="239.8"/>
        </g>
      </g>
      <polyline class="cls-3" points="239.48 225.24 252.18 225.24 252.18 232.24 239.73 232.24"/>
      <polyline class="cls-3" points="289.23 225.24 317.23 225.24 317.23 232.24 289.23 232.24"/>
      <g>
        <circle class="cls-6" cx="33.89" cy="230.95" r="18"/>
        <circle class="cls-3" cx="38.39" cy="233.14" r="11.5"/>
        <line class="cls-4" x1="33.89" y1="248.95" x2="33.89" y2="261.95"/>
        <line class="cls-7" x1="33.89" y1="248.95" x2="33.89" y2="227.28"/>
        <line class="cls-7" x1="33.83" y1="240.28" x2="40.49" y2="240.28"/>
        <line class="cls-7" x1="33.89" y1="234.95" x2="27.23" y2="234.95"/>
      </g>
      <g>
        <circle class="cls-6" cx="220.89" cy="230.95" r="18"/>
        <circle class="cls-3" cx="225.39" cy="233.14" r="11.5"/>
        <line class="cls-4" x1="220.89" y1="248.95" x2="220.89" y2="261.95"/>
        <line class="cls-7" x1="220.89" y1="248.95" x2="220.89" y2="227.28"/>
        <line class="cls-7" x1="220.83" y1="240.28" x2="227.49" y2="240.28"/>
        <line class="cls-7" x1="220.89" y1="234.95" x2="214.23" y2="234.95"/>
      </g>
      <g>
        <circle class="cls-6" cx="471.89" cy="230.95" r="18"/>
        <circle class="cls-3" cx="476.39" cy="233.14" r="11.5"/>
        <line class="cls-4" x1="471.89" y1="248.95" x2="471.89" y2="261.95"/>
        <line class="cls-7" x1="471.89" y1="248.95" x2="471.89" y2="227.28"/>
        <line class="cls-7" x1="471.83" y1="240.28" x2="478.49" y2="240.28"/>
        <line class="cls-7" x1="471.89" y1="234.95" x2="465.23" y2="234.95"/>
      </g>
      <rect class="cls-3" x="161.13" y="161.3" width="39.1" height="7"/>
      <rect class="cls-3" x="161.13" y="190.3" width="39.1" height="7"/>
      <rect class="cls-3" x="161.13" y="217.95" width="39.1" height="8.4"/>
      <g>
        <line class="cls-5" x1="142.98" y1="50.51" x2="152.12" y2="48.25"/>
        <line class="cls-5" x1="148.68" y1="53.95" x2="146.42" y2="44.81"/>
      </g>
      <g>
        <line class="cls-5" x1="166.07" y1="58.52" x2="169.35" y2="52.82"/>
        <line class="cls-5" x1="170.56" y1="57.3" x2="164.86" y2="54.03"/>
      </g>
      <circle class="cls-5" cx="464.78" cy="302" r="3.33"/>
      <circle class="cls-5" cx="8.75" cy="274.05" r="5.53"/>
      <g>
        <line class="cls-5" x1="511.86" y1="76.87" x2="521" y2="74.6"/>
        <line class="cls-5" x1="517.56" y1="80.3" x2="515.3" y2="71.16"/>
      </g>
      <g>
        <line class="cls-5" x1="176.74" y1="85.52" x2="180.01" y2="79.82"/>
        <line class="cls-5" x1="181.23" y1="84.3" x2="175.53" y2="81.03"/>
      </g>
      <g>
        <line class="cls-5" x1="23.44" y1="283.79" x2="26.71" y2="278.09"/>
        <line class="cls-5" x1="27.93" y1="282.58" x2="22.23" y2="279.3"/>
      </g>
      <g>
        <line class="cls-5" x1="2.22" y1="248.98" x2="5.49" y2="243.28"/>
        <line class="cls-5" x1="6.7" y1="247.76" x2="1" y2="244.49"/>
      </g>
      <circle class="cls-5" cx="303.23" cy="10.3" r="5.53"/>
      <circle class="cls-5" cx="483.23" cy="290.3" r="5.53"/>
      <circle class="cls-5" cx="348.53" cy="305.56" r="3.33"/>
      <g>
        <line class="cls-5" x1="512.52" y1="241.87" x2="521.67" y2="239.6"/>
        <line class="cls-5" x1="518.23" y1="245.3" x2="515.96" y2="236.16"/>
      </g>
    </g>
  </g>
</svg>