<?xml version="1.0" encoding="UTF-8"?>
<svg id="Layer_2" data-name="Layer 2" xmlns="http://www.w3.org/2000/svg" viewBox="0 0 583.64 488.76">
  <defs>
    <style>
      .cls-1 {
        fill: none;
        stroke: #352a82;
        stroke-linecap: round;
        stroke-miterlimit: 10;
        stroke-width: 2px;
      }

      .cls-2 {
        fill: #312775;
        opacity: .17;
        stroke-width: 0px;
      }
    </style>
  </defs>
  <g id="home_page" data-name="home page">
    <g>
      <path class="cls-2" d="M112.85,419.74c46.45,41.37,110.34,68.25,172.97,69,25.42.31,51.35-7,67.26-27.96,11.47-15.12,22.36-30.73,33.53-46.06,21.91-30.07,43.82-60.14,65.72-90.21,20.24-27.77,40.89-56.11,48.71-90.05,8.59-37.31,10.6-76.13,5.82-114.11-4.92-39.14-22.05-67.95-56.13-88.36C331.89-39.21,189.92,19.04,95.46,103.06c-35.19,31.3-63.02,72.23-72.48,118.89-5.94,29.27-7.1,59.59,7.51,86.27,16.03,29.27,33.55,57.89,55.1,83.48,8.47,10.06,17.59,19.43,27.27,28.05Z"/>
      <g>
        <line class="cls-1" x1="548.64" y1="128.22" x2="557.79" y2="125.95"/>
        <line class="cls-1" x1="554.35" y1="131.66" x2="552.08" y2="122.51"/>
      </g>
      <g>
        <line class="cls-1" x1="573.51" y1="216.42" x2="576.78" y2="210.71"/>
        <line class="cls-1" x1="578" y1="215.2" x2="572.3" y2="211.93"/>
      </g>
      <circle class="cls-1" cx="579.3" cy="117.75" r="3.33"/>
      <circle class="cls-1" cx="6.53" cy="221.74" r="5.53"/>
      <g>
        <line class="cls-1" x1="96.64" y1="104.22" x2="105.79" y2="101.95"/>
        <line class="cls-1" x1="102.35" y1="107.66" x2="100.08" y2="98.51"/>
      </g>
      <g>
        <line class="cls-1" x1="76.73" y1="101.9" x2="80" y2="96.2"/>
        <line class="cls-1" x1="81.22" y1="100.69" x2="75.51" y2="97.42"/>
      </g>
      <g>
        <line class="cls-1" x1="6.51" y1="249.42" x2="9.78" y2="243.71"/>
        <line class="cls-1" x1="11" y1="248.2" x2="5.3" y2="244.93"/>
      </g>
      <g>
        <line class="cls-1" x1="30.51" y1="181.42" x2="33.78" y2="175.71"/>
        <line class="cls-1" x1="35" y1="180.2" x2="29.3" y2="176.93"/>
      </g>
      <circle class="cls-1" cx="526.53" cy="270.74" r="5.53"/>
      <circle class="cls-1" cx="562.53" cy="91.74" r="5.53"/>
    </g>
  </g>
</svg>