<?xml version="1.0" encoding="UTF-8"?>
<svg id="Layer_2" data-name="Layer 2" xmlns="http://www.w3.org/2000/svg" viewBox="0 0 10.02 13.26">
  <defs>
    <style>
      .cls-1 {
        fill: #af9171;
        stroke-width: 0px;
      }
    </style>
  </defs>
  <g id="results_page" data-name="results page">
    <g>
      <path class="cls-1" d="M5.01,13.26h0c-.67,0-1.32-.15-1.94-.41-.62-.26-1.16-.64-1.63-1.12-.47-.48-.83-1.04-1.08-1.66C.11,9.44,0,8.79,0,8.12c0-1.41.65-2.53,1.21-3.35.31-.47.66-.91,1-1.35.11-.15.23-.3.35-.45.04-.05.56-.76,1.07-1.45.06-.09.3-.42.53-.72.15-.19.27-.34.36-.46C4.68.17,4.82,0,5.04,0c.14,0,.28.06.36.18l2.9,3.92c.84,1.14,1.72,2.31,1.72,4.03,0,.67-.11,1.32-.36,1.94-.25.62-.61,1.18-1.08,1.66-.47.48-1.02.86-1.63,1.12-.62.26-1.27.4-1.94.41h0ZM5.02,1.1c-.27.34-.62.82-.68.91v.02c-.54.72-1.08,1.45-1.09,1.46h0c-.12.16-.24.31-.35.46-.33.42-.67.86-.97,1.3h0c-.5.72-1.06,1.69-1.06,2.87h0c-.02,1.13.41,2.2,1.19,3,.78.81,1.83,1.26,2.96,1.27,1.12-.02,2.17-.47,2.96-1.27.79-.81,1.21-1.87,1.19-3h0c0-1.44-.75-2.45-1.55-3.52l-2.59-3.5Z"/>
      <path class="cls-1" d="M3.5,10.64c-.07,0-.15-.02-.21-.06-.7-.4-1.16-1.16-1.28-2.12-.15-1.15.18-2.37.84-3.02.17-.17.44-.17.61,0,.17.17.17.44,0,.61-.46.46-.71,1.43-.6,2.3.05.4.24,1.13.86,1.49.21.12.28.38.16.59-.08.14-.22.22-.37.22Z"/>
      <circle class="cls-1" cx="4.66" cy="10.78" r=".46"/>
    </g>
  </g>
</svg>