<?xml version="1.0" encoding="UTF-8"?>
<svg id="Layer_2" data-name="Layer 2" xmlns="http://www.w3.org/2000/svg" viewBox="0 0 11.83 14.53">
  <defs>
    <style>
      .cls-1 {
        fill: #af9171;
        stroke-width: 0px;
      }
    </style>
  </defs>
  <g id="results_page" data-name="results page">
    <g>
      <rect class="cls-1" x="3.64" y="4.52" width=".91" height="7.28"/>
      <rect class="cls-1" x="5.46" y="4.52" width=".91" height="7.28"/>
      <rect class="cls-1" x="7.28" y="4.52" width=".91" height="7.28"/>
      <path class="cls-1" d="M8.16,1.79v-.46c0-.73-.61-1.33-1.33-1.33h-1.82c-.73,0-1.33.61-1.33,1.33v.46H0v.91h.94l.82,10.5c.06.73.7,1.33,1.43,1.33h5.46c.73,0,1.37-.58,1.43-1.33l.82-10.5h.94v-.91h-3.67ZM4.52,1.33c0-.27.21-.49.49-.49h1.82c.27,0,.49.21.49.49v.46h-2.79v-.46ZM9.16,13.14c0,.24-.24.49-.52.49H3.19c-.24,0-.49-.21-.52-.49L1.86,2.7h8.12l-.81,10.44Z"/>
    </g>
  </g>
</svg>