<?xml version="1.0" encoding="UTF-8"?>
<svg id="Layer_2" data-name="Layer 2" xmlns="http://www.w3.org/2000/svg" viewBox="0 0 14.96 14.63">
  <defs>
    <style>
      .cls-1 {
        fill: #af9171;
        stroke-width: 0px;
      }
    </style>
  </defs>
  <g id="results_page" data-name="results page">
    <g>
      <path class="cls-1" d="M7.57,9.5h-3.96l.88-1.53,1.04.6-1.33-3.14h0s-.22-.51-.22-.51l-.55.07L.05,5.41l1.04.6-.91,1.54c-.19.33-.31,1.07.05,1.61.14.21.6,1.02,1,1.74.36.65.68,1.22.83,1.46.02.03.04.06.06.09.42.63.93.96,1.5.97h3.95s0-1.52,0-1.52l-.33-.44.33-.44v-1.52ZM2.2,10.74c-.07.11-.12.24-.17.37-.09-.16-.19-.33-.28-.5-.43-.76-.87-1.54-1.02-1.78-.21-.32-.13-.81-.03-.98l1.21-2.06h-.01s1.71-.22,1.71-.22l.67,1.58h-.01s-1.44,2.48-1.44,2.48v.02s-.63,1.08-.63,1.08ZM6.97,12.82h-3.34c-.36,0-.71-.25-1.01-.71,0,0,0,0,0-.01,0-.01-.02-.02-.03-.04-.14-.25-.04-.71.14-1.02l.54-.94h3.71v2.73Z"/>
      <path class="cls-1" d="M14.78,7.53l-1.98-3.42-1.32.76-.22.51-.55-.07-1.32.76,1.98,3.43h-1.77v-1.2l-2.05,2.72-.33.44.33.44,2.05,2.72v-1.2s1.79.02,1.79.02c.38,0,1.08-.27,1.37-.85.11-.23.59-1.03,1.01-1.74.38-.64.71-1.19.85-1.45.02-.03.03-.05.04-.08,0,0,0,0,0-.01.34-.68.37-1.28.1-1.78ZM13.27,10.55c-.45.75-.91,1.53-1.03,1.78-.17.34-.63.52-.83.52l-2.39-.02v.02l-1.04-1.38,1.04-1.38h0s4.14.01,4.14.01c.13,0,.27-.01.41-.04-.09.16-.19.32-.29.49ZM14.14,9.06h0s0,0,0,0c0,0,0,0,0,0h0s0,0,0,0c0,.01-.01.03-.02.05-.15.24-.59.39-.96.39h-1.08l-1.85-3.21,2.36-1.36,1.67,2.9c.18.32.14.74-.11,1.23Z"/>
      <path class="cls-1" d="M9.5.61h0,0Z"/>
      <path class="cls-1" d="M11.78,2.33l-.88-1.56c-.19-.33-.77-.79-1.41-.76h0s-.05,0-.07,0c-.42,0-1.13,0-2.02,0-.51,0-1.09,0-1.68,0h-.02c-.77.05-1.31.32-1.6.81l-1.98,3.42,1.32.76.55-.07.22.51h0s1.32.76,1.32.76l1.98-3.43.88,1.53-1.04.6,3.39.41.55.07.22-.51,1.33-3.14-1.04.6ZM5.3,5.38l-2.36-1.36,1.67-2.9c.19-.31.56-.48,1.12-.52.59,0,1.16,0,1.67,0,.26,0,.5,0,.73,0-.12.12-.22.26-.3.38l-2.53,4.38ZM10.9,4.73l-1.71-.21h.01s-1.36-2.35-1.36-2.35l.5-.87c.19-.33.62-.66,1.09-.69.02,0,.04,0,.06,0,0,0,0,0,0,0,0,0,0,0,.01,0,.38-.02.77.29.86.46l1.18,2.08h.01s-.67,1.58-.67,1.58Z"/>
    </g>
  </g>
</svg>