<?xml version="1.0" encoding="UTF-8"?>
<svg id="Layer_2" data-name="Layer 2" xmlns="http://www.w3.org/2000/svg" xmlns:xlink="http://www.w3.org/1999/xlink" viewBox="0 0 49.2 49.2">
  <defs>
    <style>
      .cls-1 {
        fill: #b56677;
        filter: url(#drop-shadow-1);
      }

      .cls-1, .cls-2 {
        stroke-width: 0px;
      }

      .cls-2 {
        fill: #fff;
      }

      .cls-3 {
        filter: url(#drop-shadow-2);
      }
    </style>
    <filter id="drop-shadow-1" filterUnits="userSpaceOnUse">
      <feOffset dx="0" dy="2"/>
      <feGaussianBlur result="blur" stdDeviation="1"/>
      <feFlood flood-color="#1c1c1c" flood-opacity=".3"/>
      <feComposite in2="blur" operator="in"/>
      <feComposite in="SourceGraphic"/>
    </filter>
    <filter id="drop-shadow-2" filterUnits="userSpaceOnUse">
      <feOffset dx="0" dy="2"/>
      <feGaussianBlur result="blur-2" stdDeviation="1"/>
      <feFlood flood-color="#515151" flood-opacity=".3"/>
      <feComposite in2="blur-2" operator="in"/>
      <feComposite in="SourceGraphic"/>
    </filter>
  </defs>
  <g id="_2_saved_listings" data-name="2 saved listings">
    <g>
      <circle class="cls-1" cx="24.6" cy="24.6" r="24.6"/>
      <g class="cls-3">
        <path class="cls-2" d="M32.78,36.83h-16.15c-.55,0-1-.45-1-1v-8.97c0-.26.1-.52.29-.7l7.9-8.06c.39-.39,1.02-.4,1.42-.02l8.24,8.06c.19.19.3.45.3.72v8.97c0,.55-.45,1-1,1ZM17.64,34.83h14.14v-7.55l-7.23-7.06-6.92,7.05v7.56Z"/>
        <path class="cls-2" d="M35.92,25.51l-11.32-11.32-11.32,11.32-1.42-1.42,12.03-12.03c.39-.39,1.03-.39,1.42,0l12.03,12.03-1.42,1.42Z"/>
        <rect class="cls-2" x="31.56" y="14.01" width="2.01" height="6.21"/>
        <path class="cls-2" d="M29.68,30.47h.02s-.03.06-.05.09c-.08.2-.18.39-.3.55-1.94,3.43-4.5,5.22-4.5,5.22,0,0-2.22-1.5-4.38-5.06-.2-.23-.36-.49-.46-.79,0,0,0-.01-.01-.02-.09-.26-.14-.55-.14-.84,0-1.4,1.14-2.54,2.54-2.54,1.17,0,2.15,1.55,2.44,2.62.3-1.07,1.28-2.62,2.44-2.62,1.4,0,2.54,1.14,2.54,2.54,0,.29-.05.58-.15.84Z"/>
      </g>
    </g>
  </g>
</svg>