<?xml version="1.0" encoding="UTF-8"?>
<svg id="Layer_2" data-name="Layer 2" xmlns="http://www.w3.org/2000/svg" viewBox="0 0 13.46 14.42">
  <defs>
    <style>
      .cls-1 {
        fill: #af9171;
        stroke-width: 0px;
      }
    </style>
  </defs>
  <g id="results_page" data-name="results page">
    <g>
      <path class="cls-1" d="M7.85,11.35c0-.8.4-1.5,1-1.94,0,0,.01-.01.02-.02.32-.29.38-.59.39-.75V1.5c0-.39.31-.7.7-.7h.64c.39,0,.7.31.7.7v7.12s.03.53.33.79c0,0,0,0,0,.01.6.44.99,1.14.99,1.93,0,1.32-1.07,2.4-2.4,2.4s-2.4-1.07-2.4-2.4ZM7.12,11.26c0,1.75,1.42,3.17,3.17,3.17s3.17-1.42,3.17-3.17c0-1.01-.47-1.9-1.2-2.48,0,0,0,0,0-.01-.18-.15-.18-.48-.18-.48V1.08c0-1-.75-1.08-.93-1.08h-1.61c-.35.03-1,.23-1,1.3v7s-.01.32-.2.49c0,0,0,0-.01.01-.72.58-1.18,1.46-1.18,2.46Z"/>
      <path class="cls-1" d="M9.37,10.14s0,0,0,0c.5-.45.54-.93.54-1.04v-1.53c0-.32.22-.35.28-.35h.16s.3,0,.3.37v1.46c.01.24.1.73.56,1.1,0,0,0,0,0,0,.37.28.61.72.61,1.21,0,.85-.69,1.54-1.54,1.54s-1.54-.69-1.54-1.54c0-.5.24-.94.62-1.22Z"/>
      <path class="cls-1" d="M.72,11.35c0-.8.4-1.5,1-1.94,0,0,.01-.01.02-.02.32-.29.38-.59.39-.75V1.5c0-.39.31-.7.7-.7h.64c.39,0,.7.31.7.7v7.12s.03.53.33.79c0,0,0,0,0,.01.6.44.99,1.14.99,1.93,0,1.32-1.07,2.4-2.4,2.4s-2.4-1.07-2.4-2.4ZM0,11.26c0,1.75,1.42,3.17,3.17,3.17s3.17-1.42,3.17-3.17c0-1.01-.47-1.9-1.2-2.48,0,0,0,0,0-.01-.18-.15-.18-.48-.18-.48V1.08C4.94.09,4.19,0,4.01,0h-1.61c-.35.03-1,.23-1,1.3v7s-.01.32-.2.49c0,0,0,0-.01.01C.46,9.38,0,10.26,0,11.26Z"/>
      <path class="cls-1" d="M2.25,10.14s0,0,0,0c.5-.45.54-.93.54-1.04v-5.08c0-.29.21-.32.29-.32h.17c.07,0,.29.03.29.37v3.77h0v1.2c.01.24.1.73.56,1.1,0,0,0,0,0,0,.37.28.61.72.61,1.21,0,.85-.69,1.54-1.54,1.54s-1.54-.69-1.54-1.54c0-.5.24-.94.62-1.22Z"/>
    </g>
  </g>
</svg>