<?xml version="1.0" encoding="UTF-8"?>
<svg id="Layer_2" data-name="Layer 2" xmlns="http://www.w3.org/2000/svg" xmlns:xlink="http://www.w3.org/1999/xlink" viewBox="0 0 116.5 117.02">
  <defs>
    <style>
      .cls-1 {
        fill: #d9d9ff;
      }

      .cls-1, .cls-2, .cls-3 {
        stroke-width: 0px;
      }

      .cls-4, .cls-2, .cls-5, .cls-6 {
        fill: none;
      }

      .cls-4, .cls-5, .cls-7, .cls-6 {
        stroke-miterlimit: 10;
      }

      .cls-4, .cls-7 {
        stroke-width: 3px;
      }

      .cls-4, .cls-7, .cls-6 {
        stroke: #312775;
      }

      .cls-5 {
        stroke: #352a82;
        stroke-linecap: round;
        stroke-width: 2px;
      }

      .cls-8 {
        clip-path: url(#clippath);
      }

      .cls-7 {
        fill: #fff;
      }

      .cls-3 {
        fill: #f8aeb8;
      }
    </style>
    <clipPath id="clippath">
      <path class="cls-2" d="M14.47,42.77l-4.43-19.28,28.81-13.3,12.19,5.98s26.2,16.59,3.77,14.38c-7.7-.76-15.76,3.02-20.2,9.49-6,8.75-3,18-3,18l-17.13-15.28ZM60.09,38.67c-4.21-2.66-10.19-1.77-10.19-1.77-17.32,5.51-12.3,21.29-12.3,21.29,40.67-1,22.49-19.51,22.49-19.51Z"/>
    </clipPath>
  </defs>
  <g id="home_page" data-name="home page">
    <g>
      <path class="cls-1" d="M33.95,95.95c8.13,7.41,17.96,12.61,29.21,12.17,18.44-.73,40.12-13.53,48.9-29.8,9.33-17.29,3.43-41.21-12.86-52.18-23.02-15.5-50.24-3.66-74.32,1.72-40.94,9.14-8.92,51.68,9.07,68.1Z"/>
      <g>
        <circle class="cls-7" cx="52.89" cy="52.19" r="20.39"/>
        <circle class="cls-6" cx="52.89" cy="52.19" r="15.95"/>
        <rect class="cls-7" x="68.23" y="69.61" width="11.23" height="5.28" transform="translate(-29.46 73.38) rotate(-45)"/>
        <rect class="cls-4" x="67.94" y="66.02" width="3.96" height="4.62" transform="translate(-27.84 69.46) rotate(-45)"/>
        <path class="cls-7" d="M85.49,69.04h6.6v33.02c0,1.82-1.48,3.3-3.3,3.3h0c-1.82,0-3.3-1.48-3.3-3.3v-33.02h0Z" transform="translate(-35.65 88.32) rotate(-45)"/>
      </g>
      <g class="cls-8">
        <g id="Layer_1-2" data-name="Layer 1">
          <path class="cls-3" d="M36.78,56.02s-15.84-2.34-15.84-15.84,20.71-14.79,16.13-31.53c0,0,15.51,4.85,11.72,19.97,0,0,2.05-1.31,3.62-3.86,0,0,7.85,6.07,7.85,15.3s-10.89,16.02-16.04,15.96c0,0,5.56-7.51.5-12.36-7.19-6.88-4.12-11.29-4.12-11.29,0,0-17.51,8.57-3.82,23.65Z"/>
        </g>
      </g>
      <g>
        <line class="cls-5" x1="98.43" y1="116.02" x2="101.7" y2="110.32"/>
        <line class="cls-5" x1="102.91" y1="114.8" x2="97.21" y2="111.53"/>
      </g>
      <g>
        <line class="cls-5" x1="1" y1="90.42" x2="6.27" y2="86.48"/>
        <line class="cls-5" x1="5.6" y1="91.08" x2="1.67" y2="85.82"/>
      </g>
      <circle class="cls-5" cx="21.96" cy="100.93" r="3.33"/>
      <g>
        <line class="cls-5" x1="59.58" y1="6.7" x2="68.72" y2="4.44"/>
        <line class="cls-5" x1="65.28" y1="10.14" x2="63.02" y2="1"/>
      </g>
    </g>
  </g>
</svg>