<?xml version="1.0" encoding="UTF-8"?>
<svg id="Layer_2" data-name="Layer 2" xmlns="http://www.w3.org/2000/svg" viewBox="0 0 15.82 14.51">
  <defs>
    <style>
      .cls-1 {
        fill: #af9171;
        stroke-width: 0px;
      }
    </style>
  </defs>
  <g id="results_page" data-name="results page">
    <path class="cls-1" d="M11.52,2c.43,0,.8.28.93.66l1.37,3.93v5.25c0,.36-.29.66-.66.66h-.66c-.36,0-.66-.3-.66-.66v-.66H3.97v.66c0,.36-.29.66-.66.66h-.66c-.36,0-.66-.3-.66-.66v-5.25l1.37-3.93c.13-.39.5-.66.93-.66h7.22M3.31,5.94h9.19l-.98-2.95h-7.22l-.98,2.95M11.52,9.22c.54,0,.98-.44.98-.98s-.44-.98-.98-.98-.98.44-.98.98.44.98.98.98M4.3,9.22c.54,0,.98-.44.98-.98s-.44-.98-.98-.98-.98.44-.98.98.44.98.98.98M11.52,0h-7.22C3.03,0,1.89.81,1.48,2.01L.11,5.94l-.11.32v5.59c0,1.46,1.19,2.66,2.66,2.66h.66c.98,0,1.83-.53,2.29-1.31h4.61c.46.79,1.32,1.31,2.29,1.31h.66c1.46,0,2.66-1.19,2.66-2.66v-5.59l-.11-.32-1.37-3.93c-.42-1.2-1.55-2.01-2.82-2.01h0Z"/>
  </g>
</svg>