<?xml version="1.0" encoding="UTF-8"?>
<svg id="Layer_2" data-name="Layer 2" xmlns="http://www.w3.org/2000/svg" viewBox="0 0 163.28 102.14">
  <defs>
    <style>
      .cls-1 {
        fill: #d9d9ff;
      }

      .cls-1, .cls-2 {
        stroke-width: 0px;
      }

      .cls-3 {
        stroke: #352a82;
        stroke-linecap: round;
        stroke-width: 2px;
      }

      .cls-3, .cls-4 {
        fill: none;
        stroke-miterlimit: 10;
      }

      .cls-4, .cls-5 {
        stroke: #312775;
      }

      .cls-2 {
        fill: #f8aeb8;
      }

      .cls-5 {
        fill: #fff;
        stroke-linejoin: round;
        stroke-width: 3px;
      }
    </style>
  </defs>
  <g id="home_page" data-name="home page">
    <g>
      <path class="cls-1" d="M101.73,3.17c-11.04-3.82-22.82-4.76-33.6.41-17.68,8.46-33.45,30.05-35.18,49.62-1.84,20.78,13.97,41.64,34.47,45.49,28.97,5.44,50.55-17.54,71.77-32.9,36.09-26.12-13.02-54.16-37.46-62.61Z"/>
      <g>
        <rect class="cls-5" x="51.5" y="33.07" width="75" height="43.52"/>
        <polygon class="cls-2" points="57.61 39.37 89 55.57 119.93 39.37 57.61 39.37"/>
        <line class="cls-4" x1="20" y1="47.09" x2="43" y2="47.09"/>
        <line class="cls-4" y1="55.09" x2="43" y2="55.09"/>
        <line class="cls-4" x1="15" y1="63.09" x2="43" y2="63.09"/>
      </g>
      <g>
        <line class="cls-3" x1="157.01" y1="34.26" x2="162.28" y2="30.33"/>
        <line class="cls-3" x1="161.61" y1="34.93" x2="157.68" y2="29.66"/>
      </g>
      <circle class="cls-3" cx="126.07" cy="95.61" r="5.53"/>
      <circle class="cls-3" cx="146.6" cy="7.86" r="3.33"/>
      <g>
        <line class="cls-3" x1="9.28" y1="76.51" x2="11.87" y2="70.47"/>
        <line class="cls-3" x1="13.6" y1="74.79" x2="7.56" y2="72.2"/>
      </g>
    </g>
  </g>
</svg>