<?xml version="1.0" encoding="UTF-8"?>
<svg id="Layer_2" data-name="Layer 2" xmlns="http://www.w3.org/2000/svg" viewBox="0 0 308.77 113.86">
  <defs>
    <style>
      .cls-1, .cls-2 {
        stroke-width: 3px;
      }

      .cls-1, .cls-2, .cls-3 {
        stroke: #312775;
        stroke-miterlimit: 10;
      }

      .cls-1, .cls-3 {
        fill: none;
      }

      .cls-4, .cls-2 {
        fill: #fff;
      }

      .cls-4, .cls-5 {
        stroke-width: 0px;
      }

      .cls-5 {
        fill: #f8aeb8;
      }
    </style>
  </defs>
  <g id="home_page" data-name="home page">
    <g>
      <polygon class="cls-4" points="180.93 112 279.13 112 279.13 53.43 282.62 53.43 282.62 48.64 285.32 48.64 285.32 27.52 245.38 27.52 245.38 10.04 249.36 10.04 249.36 5.94 252.1 5.94 252.1 1.5 181.15 1.5 181.15 5.74 183.98 5.09 184.19 9.44 187.02 9.22 186.15 71.72 175.7 71.74 175.7 75.86 180.71 76.51 180.93 80.49 176.79 80.65 176.79 86.31 180.49 86.31 180.93 112"/>
      <polygon class="cls-4" points="27.41 111.98 159.68 111.98 159.68 45.48 165.69 45.48 162.2 39.6 171.02 39.6 158.72 21.2 154.04 21.2 154.04 14.01 147.07 14.01 147.07 16.41 139.45 5.09 128.23 22.07 59.97 22.18 48.26 4.63 39.72 17.72 39.51 14.05 33.85 14.05 33.62 21.85 29.05 21.96 18.27 38.62 27.52 38.95 23.38 43.63 28.72 45.37 27.41 111.98"/>
      <line class="cls-1" x1="8.19" y1="112.36" x2="308.1" y2="112.36"/>
      <g>
        <circle class="cls-2" cx="13.26" cy="91.3" r="11.76"/>
        <circle class="cls-5" cx="16.2" cy="92.73" r="7.51"/>
        <line class="cls-1" x1="13.26" y1="103.06" x2="13.26" y2="111.55"/>
        <line class="cls-3" x1="13.26" y1="103.06" x2="13.26" y2="88.91"/>
        <line class="cls-3" x1="13.22" y1="97.4" x2="17.57" y2="97.4"/>
        <line class="cls-3" x1="13.26" y1="93.91" x2="8.9" y2="93.91"/>
      </g>
      <g>
        <polygon class="cls-1" points="48.26 4.63 74.19 44.75 69.83 44.75 48.33 11.95 27.41 44.75 23.06 44.75 48.26 4.63"/>
        <polyline class="cls-1" points="33.85 26.94 33.85 14.05 39.51 14.05 39.51 18.71"/>
        <polyline class="cls-1" points="27.41 44.75 27.41 111.98 69.22 111.98 69.22 44.75"/>
        <polygon class="cls-5" points="63.43 64.89 33.07 64.89 34.77 59.84 61.53 59.84 63.43 64.89"/>
        <polyline class="cls-3" points="40.22 60.05 40.22 45.68 44.55 45.68 44.55 60.05"/>
        <line class="cls-3" x1="40.49" y1="53.08" x2="44.28" y2="53.08"/>
        <polyline class="cls-5" points="46.2 45.89 46.2 43 38.23 43 38.23 45.89"/>
        <polyline class="cls-3" points="52.14 60.05 52.14 45.68 56.47 45.68 56.47 60.05"/>
        <line class="cls-3" x1="52.41" y1="53.08" x2="56.2" y2="53.08"/>
        <polyline class="cls-5" points="58.45 45.89 58.45 43 50.16 43 50.16 45.89"/>
        <g>
          <rect class="cls-3" x="42.09" y="76.22" width="12.85" height="2.7"/>
          <polyline class="cls-3" points="52.57 79.26 52.57 94.14 44.46 94.14 44.46 79.26"/>
          <line class="cls-3" x1="44.77" y1="83.73" x2="52.23" y2="83.73"/>
          <polyline class="cls-5" points="44.46 93.88 42.78 93.88 42.78 95.82 53.99 95.82 53.99 93.92 52.57 93.92"/>
        </g>
        <g>
          <rect class="cls-3" x="30.99" y="79.57" width="9.95" height="2.1"/>
          <polyline class="cls-3" points="39.11 81.92 39.11 93.45 32.82 93.45 32.82 81.92"/>
          <line class="cls-3" x1="33.07" y1="85.38" x2="38.85" y2="85.38"/>
          <polyline class="cls-5" points="32.82 93.19 31.53 93.19 31.53 94.69 40.21 94.69 40.21 93.22 39.11 93.22"/>
        </g>
        <g>
          <rect class="cls-3" x="56.01" y="79.57" width="9.95" height="2.1"/>
          <polyline class="cls-3" points="64.13 81.92 64.13 93.45 57.84 93.45 57.84 81.92"/>
          <line class="cls-3" x1="58.09" y1="85.38" x2="63.87" y2="85.38"/>
          <polyline class="cls-5" points="57.84 93.19 56.54 93.19 56.54 94.69 65.23 94.69 65.23 93.22 64.13 93.22"/>
        </g>
        <polyline class="cls-1" points="26.11 38.82 17.61 38.82 28.72 21.83 32.9 21.83"/>
        <g>
          <path class="cls-1" d="M69.77,66.91h2.62l2.42-1.79c.83-.67,1.86-1.04,2.93-1.04h9.22c1.25,0,2.45.5,3.34,1.38l1.45,1.45h2.41"/>
          <line class="cls-1" x1="69.44" y1="59.92" x2="94.2" y2="59.92"/>
          <g>
            <g>
              <line class="cls-3" x1="72.2" y1="65.95" x2="72.15" y2="60.27"/>
              <line class="cls-3" x1="75.63" y1="65.25" x2="75.59" y2="60.14"/>
              <line class="cls-3" x1="79.06" y1="64.56" x2="79.03" y2="60.01"/>
              <line class="cls-3" x1="82.49" y1="63.87" x2="82.48" y2="59.89"/>
              <line class="cls-3" x1="85.73" y1="64.54" x2="85.73" y2="59.94"/>
              <line class="cls-3" x1="88.97" y1="65.21" x2="88.98" y2="59.99"/>
              <line class="cls-3" x1="92.22" y1="65.88" x2="92.24" y2="60.04"/>
            </g>
            <g>
              <line class="cls-1" x1="72.2" y1="65.95" x2="72.15" y2="60.27"/>
              <line class="cls-1" x1="75.63" y1="65.25" x2="75.59" y2="60.14"/>
              <line class="cls-1" x1="79.06" y1="64.56" x2="79.03" y2="60.01"/>
              <line class="cls-1" x1="82.49" y1="63.87" x2="82.48" y2="59.89"/>
              <line class="cls-1" x1="85.73" y1="64.54" x2="85.73" y2="59.94"/>
              <line class="cls-1" x1="88.97" y1="65.21" x2="88.98" y2="59.99"/>
              <line class="cls-1" x1="92.22" y1="65.88" x2="92.24" y2="60.04"/>
            </g>
          </g>
        </g>
        <line class="cls-1" x1="70.09" y1="102.94" x2="94.26" y2="102.94"/>
        <g>
          <g>
            <polygon class="cls-3" points="72.54 71.15 73.72 75.07 75.57 75.07 76.74 71.15 72.54 71.15"/>
            <line class="cls-3" x1="70.53" y1="76.38" x2="79.02" y2="76.38"/>
          </g>
          <line class="cls-3" x1="73.47" y1="70.83" x2="73.47" y2="66.91"/>
          <line class="cls-3" x1="76.08" y1="70.83" x2="76.08" y2="64.95"/>
          <line class="cls-3" x1="73.21" y1="76.71" x2="73.21" y2="100.03"/>
          <line class="cls-3" x1="76.08" y1="76.71" x2="76.08" y2="100.03"/>
          <polyline class="cls-3" points="71.98 102.84 71.98 99.9 77.21 99.9 77.21 102.84"/>
          <line class="cls-3" x1="75.5" y1="75.07" x2="76.34" y2="76.38"/>
          <line class="cls-3" x1="73.83" y1="75.07" x2="72.98" y2="76.38"/>
        </g>
        <g>
          <g>
            <polygon class="cls-3" points="91.6 71.15 92.78 75.07 94.62 75.07 95.8 71.15 91.6 71.15"/>
            <line class="cls-3" x1="89.59" y1="76.38" x2="98.08" y2="76.38"/>
          </g>
          <line class="cls-3" x1="92.53" y1="70.83" x2="92.53" y2="66.91"/>
          <line class="cls-3" x1="95.14" y1="70.83" x2="95.14" y2="64.95"/>
          <line class="cls-3" x1="92.26" y1="76.71" x2="92.26" y2="100.03"/>
          <line class="cls-3" x1="95.14" y1="76.71" x2="95.14" y2="100.03"/>
          <polyline class="cls-3" points="91.04 102.84 91.04 99.9 96.27 99.9 96.27 102.84"/>
          <line class="cls-3" x1="94.56" y1="75.07" x2="95.4" y2="76.38"/>
          <line class="cls-3" x1="92.88" y1="75.07" x2="92.04" y2="76.38"/>
        </g>
        <polyline class="cls-3" points="77.06 102.67 88.98 102.67 88.98 80.3 76.41 80.3"/>
        <rect class="cls-5" x="77.88" y="82.75" width="2.86" height="11.35"/>
        <rect class="cls-5" x="84.33" y="82.75" width="2.86" height="11.35"/>
        <rect class="cls-3" x="77.88" y="97.61" width="2.86" height="1.5"/>
        <rect class="cls-3" x="84.33" y="97.61" width="2.86" height="1.5"/>
        <line class="cls-3" x1="82.47" y1="80.38" x2="82.47" y2="102.1"/>
        <polyline class="cls-3" points="83.71 94.94 83.71 96.47 84.51 96.47"/>
        <polyline class="cls-3" points="81.24 94.94 81.24 96.47 80.45 96.47"/>
        <g>
          <rect class="cls-3" x="73.14" y="46.42" width="5.23" height="9.58"/>
          <line class="cls-3" x1="73.14" y1="50.79" x2="78.37" y2="50.79"/>
        </g>
        <g>
          <rect class="cls-3" x="83.59" y="46.42" width="5.23" height="9.58"/>
          <line class="cls-3" x1="83.59" y1="50.79" x2="88.82" y2="50.79"/>
        </g>
        <polygon class="cls-1" points="138.83 4.63 112.9 44.75 117.26 44.75 138.76 11.95 159.68 44.75 164.03 44.75 138.83 4.63"/>
        <polyline class="cls-1" points="153.24 26.94 153.24 14.05 147.58 14.05 147.58 18.71"/>
        <polyline class="cls-1" points="159.68 44.75 159.68 111.98 117.87 111.98 117.87 44.75"/>
        <polygon class="cls-5" points="123.66 64.3 154.01 64.3 152.32 59.84 125.55 59.84 123.66 64.3"/>
        <polyline class="cls-3" points="146.87 60.05 146.87 45.68 142.54 45.68 142.54 60.05"/>
        <line class="cls-3" x1="146.6" y1="53.08" x2="142.81" y2="53.08"/>
        <polyline class="cls-5" points="140.88 45.89 140.88 43 148.85 43 148.85 45.89"/>
        <polyline class="cls-3" points="134.95 60.05 134.95 45.68 130.62 45.68 130.62 60.05"/>
        <line class="cls-3" x1="134.68" y1="53.08" x2="130.89" y2="53.08"/>
        <polyline class="cls-5" points="128.63 45.89 128.63 43 136.93 43 136.93 45.89"/>
        <g>
          <rect class="cls-3" x="132.15" y="76.22" width="12.85" height="2.7" transform="translate(277.15 155.14) rotate(-180)"/>
          <polyline class="cls-3" points="134.52 79.26 134.52 94.14 142.63 94.14 142.63 79.26"/>
          <line class="cls-3" x1="142.32" y1="83.73" x2="134.86" y2="83.73"/>
          <polyline class="cls-5" points="142.63 93.88 144.31 93.88 144.31 95.82 133.1 95.82 133.1 93.92 134.52 93.92"/>
        </g>
        <g>
          <rect class="cls-3" x="146.14" y="79.57" width="9.95" height="2.1" transform="translate(302.24 161.23) rotate(-180)"/>
          <polyline class="cls-3" points="147.98 81.92 147.98 93.45 154.26 93.45 154.26 81.92"/>
          <line class="cls-3" x1="154.02" y1="85.38" x2="148.24" y2="85.38"/>
          <polyline class="cls-5" points="154.26 93.19 155.56 93.19 155.56 94.69 146.88 94.69 146.88 93.22 147.98 93.22"/>
        </g>
        <g>
          <rect class="cls-3" x="121.12" y="79.57" width="9.95" height="2.1" transform="translate(252.2 161.23) rotate(-180)"/>
          <polyline class="cls-3" points="122.96 81.92 122.96 93.45 129.24 93.45 129.24 81.92"/>
          <line class="cls-3" x1="129" y1="85.38" x2="123.22" y2="85.38"/>
          <polyline class="cls-5" points="129.24 93.19 130.54 93.19 130.54 94.69 121.86 94.69 121.86 93.22 122.96 93.22"/>
        </g>
        <polyline class="cls-1" points="160.98 38.82 169.47 38.82 158.37 21.83 154.19 21.83"/>
        <g>
          <path class="cls-1" d="M117.32,66.91h-2.62s-2.42-1.79-2.42-1.79c-.83-.67-1.86-1.04-2.93-1.04h-9.22c-1.25,0-2.45.5-3.34,1.38l-1.45,1.45h-2.41"/>
          <line class="cls-1" x1="117.65" y1="59.92" x2="92.89" y2="59.92"/>
          <g>
            <g>
              <line class="cls-3" x1="114.88" y1="65.95" x2="114.94" y2="60.27"/>
              <line class="cls-3" x1="111.46" y1="65.25" x2="111.5" y2="60.14"/>
              <line class="cls-3" x1="108.03" y1="64.56" x2="108.05" y2="60.01"/>
              <line class="cls-3" x1="104.6" y1="63.87" x2="104.61" y2="59.89"/>
              <line class="cls-3" x1="101.36" y1="64.54" x2="101.36" y2="59.94"/>
              <line class="cls-3" x1="98.12" y1="65.21" x2="98.1" y2="59.99"/>
              <line class="cls-3" x1="94.87" y1="65.88" x2="94.85" y2="60.04"/>
            </g>
            <g>
              <line class="cls-1" x1="114.88" y1="65.95" x2="114.94" y2="60.27"/>
              <line class="cls-1" x1="111.46" y1="65.25" x2="111.5" y2="60.14"/>
              <line class="cls-1" x1="108.03" y1="64.56" x2="108.05" y2="60.01"/>
              <line class="cls-1" x1="104.6" y1="63.87" x2="104.61" y2="59.89"/>
              <line class="cls-1" x1="101.36" y1="64.54" x2="101.36" y2="59.94"/>
              <line class="cls-1" x1="98.12" y1="65.21" x2="98.1" y2="59.99"/>
              <line class="cls-1" x1="94.87" y1="65.88" x2="94.85" y2="60.04"/>
            </g>
          </g>
        </g>
        <g>
          <polygon class="cls-3" points="114.54 71.15 113.37 75.07 111.52 75.07 110.35 71.15 114.54 71.15"/>
          <line class="cls-3" x1="116.56" y1="76.38" x2="108.07" y2="76.38"/>
        </g>
        <line class="cls-3" x1="113.62" y1="70.83" x2="113.62" y2="66.91"/>
        <line class="cls-3" x1="111.01" y1="70.83" x2="111.01" y2="64.95"/>
        <line class="cls-3" x1="113.88" y1="76.71" x2="113.88" y2="100.03"/>
        <line class="cls-3" x1="111.01" y1="76.71" x2="111.01" y2="100.03"/>
        <polyline class="cls-3" points="115.1 102.84 115.1 99.9 109.88 99.9 109.88 102.84"/>
        <line class="cls-1" x1="117" y1="102.94" x2="92.83" y2="102.94"/>
        <line class="cls-1" x1="116.89" y1="107.74" x2="70.2" y2="107.74"/>
        <line class="cls-3" x1="111.59" y1="75.07" x2="110.75" y2="76.38"/>
        <line class="cls-3" x1="113.26" y1="75.07" x2="114.1" y2="76.38"/>
        <polyline class="cls-3" points="110.03 102.67 98.11 102.67 98.11 80.3 110.68 80.3"/>
        <rect class="cls-5" x="106.35" y="82.75" width="2.86" height="11.35" transform="translate(215.56 176.85) rotate(-180)"/>
        <rect class="cls-5" x="99.9" y="82.75" width="2.86" height="11.35" transform="translate(202.66 176.85) rotate(-180)"/>
        <rect class="cls-3" x="106.35" y="97.61" width="2.86" height="1.5" transform="translate(215.56 196.72) rotate(-180)"/>
        <rect class="cls-3" x="99.9" y="97.61" width="2.86" height="1.5" transform="translate(202.66 196.72) rotate(-180)"/>
        <line class="cls-3" x1="104.62" y1="80.38" x2="104.62" y2="102.1"/>
        <polyline class="cls-3" points="103.38 94.94 103.38 96.47 102.58 96.47"/>
        <polyline class="cls-3" points="105.85 94.94 105.85 96.47 106.64 96.47"/>
        <line class="cls-1" x1="118.74" y1="36.86" x2="68.35" y2="36.86"/>
        <g>
          <rect class="cls-3" x="108.72" y="46.42" width="5.23" height="9.58" transform="translate(222.67 102.41) rotate(-180)"/>
          <line class="cls-3" x1="113.95" y1="50.79" x2="108.72" y2="50.79"/>
        </g>
        <g>
          <rect class="cls-3" x="98.27" y="46.42" width="5.23" height="9.58" transform="translate(201.76 102.41) rotate(-180)"/>
          <line class="cls-3" x1="103.49" y1="50.79" x2="98.27" y2="50.79"/>
        </g>
        <polyline class="cls-1" points="126.93 21.83 93.65 21.83 93.43 21.83 60.16 21.83"/>
      </g>
      <polyline class="cls-1" points="186.7 10.04 186.7 71.74 245.82 71.74 245.82 10.04"/>
      <rect class="cls-1" x="183.16" y="5.94" width="66.19" height="3.68"/>
      <rect class="cls-1" x="180.41" y="1.5" width="71.69" height="4.24"/>
      <g>
        <path class="cls-3" d="M200.15,20.98h0c1.94,0,3.51,1.57,3.51,3.51v8.02h-7.02v-8.02c0-1.94,1.57-3.51,3.51-3.51Z"/>
        <polyline class="cls-5" points="196.32 32.41 194.71 32.41 194.71 34.57 205.59 34.57 205.59 32.41 203.34 32.41"/>
        <line class="cls-3" x1="196.48" y1="28.49" x2="203.83" y2="28.49"/>
        <line class="cls-3" x1="200.15" y1="28.49" x2="200.15" y2="32.16"/>
      </g>
      <g>
        <path class="cls-3" d="M216.02,20.98h0c1.94,0,3.51,1.57,3.51,3.51v8.02h-7.02v-8.02c0-1.94,1.57-3.51,3.51-3.51Z"/>
        <polyline class="cls-5" points="212.18 32.41 210.58 32.41 210.58 34.57 221.46 34.57 221.46 32.41 219.2 32.41"/>
        <line class="cls-3" x1="212.34" y1="28.49" x2="219.69" y2="28.49"/>
        <line class="cls-3" x1="216.02" y1="28.49" x2="216.02" y2="32.16"/>
      </g>
      <g>
        <path class="cls-3" d="M231.88,20.98h0c1.94,0,3.51,1.57,3.51,3.51v8.02h-7.02v-8.02c0-1.94,1.57-3.51,3.51-3.51Z"/>
        <polyline class="cls-5" points="228.05 32.41 226.44 32.41 226.44 34.57 237.32 34.57 237.32 32.41 235.07 32.41"/>
        <line class="cls-3" x1="228.2" y1="28.49" x2="235.56" y2="28.49"/>
        <line class="cls-3" x1="231.88" y1="28.49" x2="231.88" y2="32.16"/>
      </g>
      <g>
        <path class="cls-3" d="M200.15,46.58h0c1.94,0,3.51,1.57,3.51,3.51v8.02h-7.02v-8.02c0-1.94,1.57-3.51,3.51-3.51Z"/>
        <polyline class="cls-5" points="196.32 58.01 194.71 58.01 194.71 60.16 205.59 60.16 205.59 58.01 203.34 58.01"/>
        <line class="cls-3" x1="196.48" y1="54.08" x2="203.83" y2="54.08"/>
        <line class="cls-3" x1="200.15" y1="54.08" x2="200.15" y2="57.76"/>
      </g>
      <g>
        <path class="cls-3" d="M216.02,46.58h0c1.94,0,3.51,1.57,3.51,3.51v8.02h-7.02v-8.02c0-1.94,1.57-3.51,3.51-3.51Z"/>
        <polyline class="cls-5" points="212.18 58.01 210.58 58.01 210.58 60.16 221.46 60.16 221.46 58.01 219.2 58.01"/>
        <line class="cls-3" x1="212.34" y1="54.08" x2="219.69" y2="54.08"/>
        <line class="cls-3" x1="216.02" y1="54.08" x2="216.02" y2="57.76"/>
      </g>
      <g>
        <path class="cls-3" d="M231.88,46.58h0c1.94,0,3.51,1.57,3.51,3.51v8.02h-7.02v-8.02c0-1.94,1.57-3.51,3.51-3.51Z"/>
        <polyline class="cls-5" points="228.05 58.01 226.44 58.01 226.44 60.16 237.32 60.16 237.32 58.01 235.07 58.01"/>
        <line class="cls-3" x1="228.2" y1="54.08" x2="235.56" y2="54.08"/>
        <line class="cls-3" x1="231.88" y1="54.08" x2="231.88" y2="57.76"/>
      </g>
      <line class="cls-1" x1="180.93" y1="111.57" x2="180.93" y2="86.9"/>
      <line class="cls-1" x1="180.93" y1="80.49" x2="180.93" y2="75.86"/>
      <line class="cls-1" x1="252.03" y1="111.57" x2="252.03" y2="86.9"/>
      <line class="cls-1" x1="252.03" y1="80.49" x2="252.03" y2="76.84"/>
      <rect class="cls-1" x="177.73" y="80.49" width="77.41" height="6.4"/>
      <line class="cls-1" x1="195.73" y1="88.01" x2="195.73" y2="112.11"/>
      <rect class="cls-3" x="198.63" y="90.41" width="50.52" height="12.19"/>
      <line class="cls-3" x1="215.29" y1="90.58" x2="215.29" y2="102.34"/>
      <line class="cls-3" x1="233.82" y1="90.58" x2="233.82" y2="102.04"/>
      <polyline class="cls-1" points="186.68 71.74 175.7 71.74 175.7 75.86 252.46 75.86 257.03 75.86 257.03 72 245.27 72"/>
      <rect class="cls-5" x="184.15" y="89.91" width="8.49" height="17.96"/>
      <polyline class="cls-1" points="246.58 27.52 285.32 27.52 285.32 49.07 245.93 49.07"/>
      <polyline class="cls-1" points="282.57 50.05 282.57 52.67 245.93 52.67"/>
      <line class="cls-1" x1="278.92" y1="112.44" x2="278.92" y2="107.54"/>
      <line class="cls-1" x1="278.92" y1="96" x2="278.92" y2="92.3"/>
      <line class="cls-1" x1="278.92" y1="80.76" x2="278.92" y2="77.05"/>
      <line class="cls-1" x1="278.92" y1="65.52" x2="278.92" y2="61.81"/>
      <line class="cls-1" x1="278.92" y1="57.89" x2="278.92" y2="52.99"/>
      <line class="cls-1" x1="278.92" y1="73.13" x2="278.92" y2="69.43"/>
      <line class="cls-1" x1="278.92" y1="88.38" x2="278.92" y2="84.68"/>
      <line class="cls-1" x1="278.92" y1="103.62" x2="278.92" y2="99.92"/>
      <rect class="cls-1" x="275.32" y="57.89" width="5.88" height="3.92"/>
      <rect class="cls-1" x="275.32" y="65.51" width="5.88" height="3.92"/>
      <rect class="cls-1" x="275.32" y="73.13" width="5.88" height="3.92"/>
      <rect class="cls-1" x="275.32" y="80.76" width="5.88" height="3.92"/>
      <rect class="cls-1" x="275.32" y="88.38" width="5.88" height="3.92"/>
      <rect class="cls-1" x="275.32" y="96" width="5.88" height="3.92"/>
      <rect class="cls-1" x="275.32" y="103.62" width="5.88" height="3.92"/>
      <g>
        <line class="cls-1" x1="249.72" y1="30.13" x2="249.72" y2="45.81"/>
        <line class="cls-1" x1="252.61" y1="30.13" x2="252.61" y2="45.81"/>
        <line class="cls-1" x1="255.51" y1="30.13" x2="255.51" y2="45.81"/>
        <line class="cls-1" x1="258.41" y1="30.13" x2="258.41" y2="45.81"/>
        <line class="cls-1" x1="261.31" y1="30.13" x2="261.31" y2="45.81"/>
        <line class="cls-1" x1="264.21" y1="30.13" x2="264.21" y2="45.81"/>
        <line class="cls-1" x1="267.1" y1="30.13" x2="267.1" y2="45.81"/>
        <line class="cls-1" x1="270" y1="30.13" x2="270" y2="45.81"/>
        <line class="cls-1" x1="272.9" y1="30.13" x2="272.9" y2="45.81"/>
        <line class="cls-1" x1="275.8" y1="30.13" x2="275.8" y2="45.81"/>
        <line class="cls-1" x1="278.7" y1="30.13" x2="278.7" y2="45.81"/>
        <line class="cls-1" x1="281.59" y1="30.13" x2="281.59" y2="45.81"/>
      </g>
      <g>
        <line class="cls-3" x1="251.19" y1="58.22" x2="258.71" y2="58.22"/>
        <polyline class="cls-3" points="252.83 58.22 252.83 64.75 257.07 64.75 257.07 57.89"/>
        <line class="cls-3" x1="253.15" y1="60.5" x2="256.75" y2="60.5"/>
        <rect class="cls-5" x="251.03" y="64.88" width="7.84" height="1.63"/>
      </g>
      <g>
        <line class="cls-3" x1="264.05" y1="58.22" x2="271.57" y2="58.22"/>
        <polyline class="cls-3" points="265.69 58.22 265.69 64.75 269.93 64.75 269.93 57.89"/>
        <line class="cls-3" x1="266.01" y1="60.5" x2="269.61" y2="60.5"/>
        <rect class="cls-5" x="263.89" y="64.88" width="7.84" height="1.63"/>
      </g>
      <g>
        <line class="cls-3" x1="251.19" y1="77.16" x2="258.71" y2="77.16"/>
        <polyline class="cls-3" points="254.91 83.7 257.07 83.7 257.07 76.84"/>
        <line class="cls-3" x1="252.83" y1="77.16" x2="252.83" y2="81.41"/>
        <line class="cls-3" x1="253.15" y1="79.45" x2="256.75" y2="79.45"/>
        <rect class="cls-5" x="256.22" y="83.83" width="2.65" height="1.63"/>
      </g>
      <g>
        <line class="cls-3" x1="264.05" y1="77.16" x2="271.57" y2="77.16"/>
        <polyline class="cls-3" points="265.69 77.16 265.69 83.7 269.93 83.7 269.93 76.84"/>
        <line class="cls-3" x1="266.01" y1="79.45" x2="269.61" y2="79.45"/>
        <rect class="cls-5" x="263.89" y="83.83" width="7.84" height="1.63"/>
      </g>
      <g>
        <line class="cls-3" x1="251.19" y1="96.11" x2="258.71" y2="96.11"/>
        <polyline class="cls-3" points="252.83 96.11 252.83 102.64 257.07 102.64 257.07 95.78"/>
        <line class="cls-3" x1="253.15" y1="98.39" x2="256.75" y2="98.39"/>
        <rect class="cls-5" x="252.96" y="102.77" width="5.91" height="1.63"/>
      </g>
      <g>
        <line class="cls-3" x1="264.05" y1="96.11" x2="271.57" y2="96.11"/>
        <polyline class="cls-3" points="265.69 96.11 265.69 102.64 269.93 102.64 269.93 95.78"/>
        <line class="cls-3" x1="266.01" y1="98.39" x2="269.61" y2="98.39"/>
        <rect class="cls-5" x="263.89" y="102.77" width="7.84" height="1.63"/>
      </g>
      <g>
        <circle class="cls-2" cx="295.51" cy="91.3" r="11.76"/>
        <circle class="cls-5" cx="298.45" cy="92.73" r="7.51"/>
        <line class="cls-1" x1="295.51" y1="103.06" x2="295.51" y2="111.55"/>
        <line class="cls-3" x1="295.51" y1="103.06" x2="295.51" y2="88.91"/>
        <line class="cls-3" x1="295.47" y1="97.4" x2="299.82" y2="97.4"/>
        <line class="cls-3" x1="295.51" y1="93.91" x2="291.15" y2="93.91"/>
      </g>
      <g>
        <circle class="cls-2" cx="169.39" cy="91.3" r="11.76"/>
        <circle class="cls-5" cx="172.33" cy="92.73" r="7.51"/>
        <line class="cls-1" x1="169.39" y1="103.06" x2="169.39" y2="111.55"/>
        <line class="cls-3" x1="169.39" y1="103.06" x2="169.39" y2="88.91"/>
        <line class="cls-3" x1="169.34" y1="97.4" x2="173.7" y2="97.4"/>
        <line class="cls-3" x1="169.39" y1="93.91" x2="165.03" y2="93.91"/>
      </g>
    </g>
  </g>
</svg>