<?xml version="1.0" encoding="UTF-8"?>
<svg id="Layer_2" data-name="Layer 2" xmlns="http://www.w3.org/2000/svg" viewBox="0 0 120 114.5">
  <defs>
    <style>
      .cls-1 {
        fill: #ffd6a1;
      }

      .cls-1, .cls-2, .cls-3, .cls-4, .cls-5 {
        stroke-width: 0px;
      }

      .cls-2 {
        fill: #f2927c;
      }

      .cls-3 {
        fill: #442772;
      }

      .cls-4 {
        fill: #fff;
      }

      .cls-5 {
        fill: #f8aeb8;
      }
    </style>
  </defs>
  <g id="home_page" data-name="home page">
    <g>
      <path class="cls-3" d="M85.19,114.5H0V34.81C0,15.59,15.59,0,34.81,0h85.19v79.69c0,19.23-15.59,34.82-34.81,34.82Z"/>
      <g>
        <path class="cls-4" d="M33.45,28.31v2.26h-.91v7.43h2.21v-2.17h2.87v4.45h-9.58v-2.28h.94v-7.43h-.94v-2.26h5.41Z"/>
        <path class="cls-4" d="M44.36,28.31v2.26h-1.06v7.43h1.06v2.28h-5.68v-2.28h1.08v-7.43h-1.08v-2.26h5.68Z"/>
        <path class="cls-4" d="M52.56,36.43c.03-.48.27-1.32.62-2.17l1.56-3.73h-.91v-2.22h4.86v2.22h-.84l-4.11,9.74h-3.15l-4.53-9.74h-.94v-2.22h6.3v2.22h-.92l1.45,3.83c.27.84.5,1.59.53,2.07h.09Z"/>
        <path class="cls-4" d="M65.13,28.31v2.26h-1.06v7.43h1.06v2.28h-5.68v-2.28h1.08v-7.43h-1.08v-2.26h5.68Z"/>
        <path class="cls-4" d="M78.42,30.51v9.75h-3.68l-4.36-6.52v4.31h1.32v2.21h-5.25v-2.21h1.01v-7.55h-.99v-2.21h4.91l4.19,6.28v-4.07h-1.16v-2.21h5.15v2.21h-1.13Z"/>
        <path class="cls-4" d="M88.41,39.19c-.38.63-1.44,1.23-2.75,1.23-2.99,0-5.37-2.33-5.37-6.02s2.58-6.3,5.25-6.3c2.48,0,3.06,1.16,3.34,1.44l.36-1.23h2.55v5.05h-3.06c-.05-1.39-.94-2.17-1.95-2.17-1.39,0-2.34,1.51-2.34,3.22s.85,3.15,2.34,3.15c.98,0,1.39-.39,1.64-.84v-.72h-1.04v-1.83h5.68v1.83h-.68v4.28h-3.42l-.53-1.08Z"/>
        <path class="cls-4" d="M33.57,44.33v2.26h-1.06v7.43h1.06v2.28h-5.68v-2.28h1.08v-7.43h-1.08v-2.26h5.68Z"/>
        <path class="cls-4" d="M47.43,46.53v9.75h-3.68l-4.36-6.52v4.31h1.32v2.21h-5.25v-2.21h1.01v-7.55h-.99v-2.21h4.91l4.19,6.28v-4.07h-1.16v-2.21h5.15v2.21h-1.13Z"/>
        <path class="cls-4" d="M66.99,48.77h-2.52v-2.19h-1.44v7.43h1.42v2.28h-6.36v-2.28h1.4v-7.43h-1.47v2.19h-2.51v-4.45h11.48v4.45Z"/>
        <path class="cls-4" d="M74.06,44.33v2.26h-1.06v2.58h3.25v-2.58h-1.01v-2.26h5.56v2.26h-.99v7.44h.99v2.26h-5.56v-2.26h1.01v-2.58h-3.25v2.58h1.06v2.26h-5.54v-2.26h.94v-7.44h-.94v-2.26h5.54Z"/>
        <path class="cls-4" d="M93.02,44.33v3.78h-2.96v-1.52h-2.74v2.36h3.25v2.28h-3.25v2.79h2.74v-1.59h2.96v3.87h-10.32v-2.28h1.08v-7.43h-1.08v-2.26h10.32Z"/>
      </g>
      <g>
        <g>
          <polygon class="cls-5" points="36.26 77.7 27.93 77.6 36.12 61.55 44.63 61.55 36.26 77.7"/>
          <path class="cls-1" d="M37.93,91.11c-.28,0-.57-.01-.86-.04-2.77-.23-5.29-1.52-7.1-3.63-1.81-2.12-2.67-4.81-2.45-7.59.47-5.72,5.52-9.99,11.24-9.52,2.77.23,5.29,1.52,7.1,3.63,1.8,2.12,2.67,4.81,2.45,7.59-.45,5.43-5.02,9.55-10.38,9.55ZM37.92,77.83c-1.49,0-2.77,1.14-2.89,2.65-.06.76.18,1.51.68,2.09.5.59,1.2.95,1.98,1.01,1.6.12,3-1.05,3.13-2.64.06-.76-.18-1.51-.68-2.09-.5-.59-1.2-.95-1.98-1.01-.08,0-.16,0-.24,0Z"/>
          <path class="cls-2" d="M39.99,70.5l-3.74,7.19-8.28-.09h-.05l.14-.28,1.33-2.58c2.05-2.92,5.57-4.72,9.39-4.41.42.03.82.09,1.22.17Z"/>
          <rect class="cls-5" x="52.93" y="61.78" width="8.18" height="28.72"/>
          <polygon class="cls-1" points="83.08 90.42 64.12 61.33 73.06 61.32 91.96 90.41 83.08 90.42"/>
          <polygon class="cls-5" points="72.4 90.42 63.69 90.42 82.91 61.32 91.95 61.34 72.4 90.42"/>
        </g>
        <polygon class="cls-2" points="77.92 68.87 73.49 75.52 77.81 82.37 82.37 75.52 77.92 68.87"/>
      </g>
    </g>
  </g>
</svg>