<?xml version="1.0" encoding="UTF-8"?>
<svg id="Layer_2" data-name="Layer 2" xmlns="http://www.w3.org/2000/svg" viewBox="0 0 526.96 311.44">
  <defs>
    <style>
      .cls-1 {
        fill: #d9d9ff;
      }

      .cls-1, .cls-2, .cls-3 {
        stroke-width: 0px;
      }

      .cls-4, .cls-5, .cls-6, .cls-7 {
        stroke-miterlimit: 10;
      }

      .cls-4, .cls-5, .cls-7 {
        fill: none;
      }

      .cls-4, .cls-6 {
        stroke-width: 3px;
      }

      .cls-4, .cls-6, .cls-7 {
        stroke: #312775;
      }

      .cls-5 {
        stroke: #352a82;
        stroke-linecap: round;
        stroke-width: 2px;
      }

      .cls-2, .cls-6 {
        fill: #fff;
      }

      .cls-3 {
        fill: #f8aeb8;
      }
    </style>
  </defs>
  <g id="home_page" data-name="home page">
    <g>
      <path class="cls-1" d="M102.63,236.15c101.36,64.52,249.95,123.16,346.85,16.22,13.08-14.44,24.55-30.9,33.6-49.04,14.07-28.19,22.64-63.09,12.07-93.27-5.28-15.07-14.89-27.61-25.55-38.19-25.39-25.23-57.19-40.68-89.83-49.08-32.65-8.4-66.3-10.05-99.73-10.18-48.14-.19-97.26,10.11-142.81,30.26-38.22,16.91-117.03,47.05-108.38,110.48,1.7,12.46,8.4,23.22,15.82,32.45,16.11,20.05,36.13,36.47,57.96,50.37Z"/>
      <polygon class="cls-2" points="310.86 246.77 461.19 246.77 461.19 157.11 466.53 157.11 466.53 149.77 470.66 149.77 470.66 117.44 409.53 117.44 409.53 90.68 415.61 90.68 415.61 84.42 419.82 84.42 419.82 77.62 311.19 77.62 311.19 84.11 315.53 83.11 315.86 89.77 320.19 89.44 318.86 185.11 302.86 185.14 302.86 191.44 310.53 192.44 310.86 198.54 304.53 198.77 304.53 207.44 310.19 207.44 310.86 246.77"/>
      <polygon class="cls-2" points="75.86 246.74 278.33 246.74 278.33 144.94 287.53 144.94 282.19 135.94 295.69 135.94 276.86 107.77 269.69 107.77 269.69 96.77 259.03 96.77 259.03 100.44 247.36 83.11 230.19 109.11 125.69 109.27 107.78 82.41 94.69 102.44 94.38 96.82 85.71 96.82 85.36 108.77 78.36 108.94 61.86 134.44 76.03 134.94 69.69 142.11 77.86 144.77 75.86 246.74"/>
      <line class="cls-4" x1="46.43" y1="247.31" x2="505.53" y2="247.31"/>
      <g>
        <circle class="cls-6" cx="54.19" cy="215.08" r="18"/>
        <circle class="cls-3" cx="58.69" cy="217.27" r="11.5"/>
        <line class="cls-4" x1="54.19" y1="233.08" x2="54.19" y2="246.08"/>
        <line class="cls-7" x1="54.19" y1="233.08" x2="54.19" y2="211.41"/>
        <line class="cls-7" x1="54.13" y1="224.41" x2="60.79" y2="224.41"/>
        <line class="cls-7" x1="54.19" y1="219.08" x2="47.53" y2="219.08"/>
      </g>
      <g>
        <line class="cls-5" x1="424.72" y1="291.7" x2="433.86" y2="289.44"/>
        <line class="cls-5" x1="430.42" y1="295.14" x2="428.16" y2="286"/>
      </g>
      <g>
        <line class="cls-5" x1="459.11" y1="289.44" x2="462.38" y2="283.74"/>
        <line class="cls-5" x1="463.6" y1="288.23" x2="457.9" y2="284.96"/>
      </g>
      <circle class="cls-5" cx="450.15" cy="275.93" r="3.33"/>
      <g>
        <line class="cls-5" x1="390.72" y1="6.7" x2="399.86" y2="4.44"/>
        <line class="cls-5" x1="396.42" y1="10.14" x2="394.16" y2="1"/>
      </g>
      <g>
        <line class="cls-5" x1="511.37" y1="116.66" x2="514.64" y2="110.95"/>
        <line class="cls-5" x1="515.86" y1="115.44" x2="510.16" y2="112.17"/>
      </g>
      <g>
        <line class="cls-5" x1="520.34" y1="127.33" x2="525.96" y2="123.92"/>
        <line class="cls-5" x1="524.86" y1="128.44" x2="521.45" y2="122.82"/>
      </g>
      <g>
        <line class="cls-5" x1="22.51" y1="233.11" x2="25.78" y2="227.41"/>
        <line class="cls-5" x1="27" y1="231.9" x2="21.3" y2="228.63"/>
      </g>
      <circle class="cls-5" cx="6.53" cy="224.44" r="5.53"/>
      <circle class="cls-5" cx="517.53" cy="94.44" r="5.53"/>
      <circle class="cls-5" cx="410.86" cy="19.44" r="3.33"/>
      <g>
        <line class="cls-5" x1="150.82" y1="22" x2="159.97" y2="19.74"/>
        <line class="cls-5" x1="156.53" y1="25.44" x2="154.26" y2="16.3"/>
      </g>
      <g>
        <polygon class="cls-4" points="107.78 82.41 147.46 143.82 140.79 143.82 107.88 93.61 75.86 143.82 69.19 143.82 107.78 82.41"/>
        <polyline class="cls-4" points="85.71 116.56 85.71 96.82 94.38 96.82 94.38 103.96"/>
        <polyline class="cls-4" points="75.86 143.82 75.86 246.74 139.86 246.74 139.86 143.82"/>
        <polygon class="cls-3" points="130.99 174.66 84.53 174.66 87.13 166.92 128.09 166.92 130.99 174.66"/>
        <polyline class="cls-7" points="95.46 167.24 95.46 145.24 102.09 145.24 102.09 167.24"/>
        <line class="cls-7" x1="95.88" y1="156.57" x2="101.68" y2="156.57"/>
        <polyline class="cls-3" points="104.63 145.57 104.63 141.14 92.43 141.14 92.43 145.57"/>
        <polyline class="cls-7" points="113.71 167.24 113.71 145.24 120.34 145.24 120.34 167.24"/>
        <line class="cls-7" x1="114.13" y1="156.57" x2="119.93" y2="156.57"/>
        <polyline class="cls-3" points="123.38 145.57 123.38 141.14 110.68 141.14 110.68 145.57"/>
        <g>
          <rect class="cls-7" x="98.33" y="192" width="19.67" height="4.14"/>
          <polyline class="cls-7" points="114.37 196.65 114.37 219.43 101.95 219.43 101.95 196.65"/>
          <line class="cls-7" x1="102.43" y1="203.48" x2="113.85" y2="203.48"/>
          <polyline class="cls-3" points="101.95 219.03 99.38 219.03 99.38 222 116.54 222 116.54 219.09 114.37 219.09"/>
        </g>
        <g>
          <rect class="cls-7" x="81.34" y="197.12" width="15.24" height="3.21"/>
          <polyline class="cls-7" points="93.77 200.73 93.77 218.37 84.14 218.37 84.14 200.73"/>
          <line class="cls-7" x1="84.52" y1="206.02" x2="93.36" y2="206.02"/>
          <polyline class="cls-3" points="84.14 217.97 82.16 217.97 82.16 220.28 95.45 220.28 95.45 218.02 93.77 218.02"/>
        </g>
        <g>
          <rect class="cls-7" x="119.64" y="197.12" width="15.24" height="3.21"/>
          <polyline class="cls-7" points="132.07 200.73 132.07 218.37 122.44 218.37 122.44 200.73"/>
          <line class="cls-7" x1="122.82" y1="206.02" x2="131.66" y2="206.02"/>
          <polyline class="cls-3" points="122.44 217.97 120.46 217.97 120.46 220.28 133.75 220.28 133.75 218.02 132.07 218.02"/>
        </g>
        <polyline class="cls-4" points="73.86 134.74 60.86 134.74 77.86 108.74 84.26 108.74"/>
        <g>
          <path class="cls-4" d="M140.69,177.74h4.01l3.71-2.74c1.27-1.03,2.85-1.59,4.48-1.59h14.11c1.92,0,3.76.76,5.11,2.12l2.21,2.21h3.69"/>
          <line class="cls-4" x1="140.19" y1="167.04" x2="178.09" y2="167.04"/>
          <g>
            <g>
              <line class="cls-7" x1="144.43" y1="176.27" x2="144.34" y2="167.57"/>
              <line class="cls-7" x1="149.67" y1="175.21" x2="149.61" y2="167.38"/>
              <line class="cls-7" x1="154.92" y1="174.15" x2="154.88" y2="167.18"/>
              <line class="cls-7" x1="160.16" y1="173.09" x2="160.15" y2="166.99"/>
              <line class="cls-7" x1="165.13" y1="174.12" x2="165.13" y2="167.07"/>
              <line class="cls-7" x1="170.09" y1="175.14" x2="170.11" y2="167.14"/>
              <line class="cls-7" x1="175.06" y1="176.17" x2="175.09" y2="167.22"/>
            </g>
            <g>
              <line class="cls-4" x1="144.43" y1="176.27" x2="144.34" y2="167.57"/>
              <line class="cls-4" x1="149.67" y1="175.21" x2="149.61" y2="167.38"/>
              <line class="cls-4" x1="154.92" y1="174.15" x2="154.88" y2="167.18"/>
              <line class="cls-4" x1="160.16" y1="173.09" x2="160.15" y2="166.99"/>
              <line class="cls-4" x1="165.13" y1="174.12" x2="165.13" y2="167.07"/>
              <line class="cls-4" x1="170.09" y1="175.14" x2="170.11" y2="167.14"/>
              <line class="cls-4" x1="175.06" y1="176.17" x2="175.09" y2="167.22"/>
            </g>
          </g>
        </g>
        <line class="cls-4" x1="141.19" y1="232.91" x2="178.19" y2="232.91"/>
        <g>
          <g>
            <polygon class="cls-7" points="144.95 184.24 146.75 190.24 149.57 190.24 151.37 184.24 144.95 184.24"/>
            <line class="cls-7" x1="141.86" y1="192.24" x2="154.86" y2="192.24"/>
          </g>
          <line class="cls-7" x1="146.36" y1="183.74" x2="146.36" y2="177.74"/>
          <line class="cls-7" x1="150.36" y1="183.74" x2="150.36" y2="174.74"/>
          <line class="cls-7" x1="145.96" y1="192.74" x2="145.96" y2="228.44"/>
          <line class="cls-7" x1="150.36" y1="192.74" x2="150.36" y2="228.44"/>
          <polyline class="cls-7" points="144.09 232.74 144.09 228.24 152.09 228.24 152.09 232.74"/>
          <line class="cls-7" x1="149.47" y1="190.24" x2="150.76" y2="192.24"/>
          <line class="cls-7" x1="146.91" y1="190.24" x2="145.62" y2="192.24"/>
        </g>
        <g>
          <g>
            <polygon class="cls-7" points="174.12 184.24 175.92 190.24 178.75 190.24 180.55 184.24 174.12 184.24"/>
            <line class="cls-7" x1="171.03" y1="192.24" x2="184.03" y2="192.24"/>
          </g>
          <line class="cls-7" x1="175.53" y1="183.74" x2="175.53" y2="177.74"/>
          <line class="cls-7" x1="179.53" y1="183.74" x2="179.53" y2="174.74"/>
          <line class="cls-7" x1="175.13" y1="192.74" x2="175.13" y2="228.44"/>
          <line class="cls-7" x1="179.53" y1="192.74" x2="179.53" y2="228.44"/>
          <polyline class="cls-7" points="173.26 232.74 173.26 228.24 181.26 228.24 181.26 232.74"/>
          <line class="cls-7" x1="178.65" y1="190.24" x2="179.93" y2="192.24"/>
          <line class="cls-7" x1="176.08" y1="190.24" x2="174.8" y2="192.24"/>
        </g>
        <polyline class="cls-7" points="151.86 232.49 170.11 232.49 170.11 198.24 150.86 198.24"/>
        <rect class="cls-3" x="153.11" y="201.99" width="4.38" height="17.38"/>
        <rect class="cls-3" x="162.98" y="201.99" width="4.38" height="17.38"/>
        <rect class="cls-7" x="153.11" y="224.74" width="4.38" height="2.29"/>
        <rect class="cls-7" x="162.98" y="224.74" width="4.38" height="2.29"/>
        <line class="cls-7" x1="160.13" y1="198.36" x2="160.13" y2="231.61"/>
        <polyline class="cls-7" points="162.04 220.66 162.04 222.99 163.26 222.99"/>
        <polyline class="cls-7" points="158.26 220.66 158.26 222.99 157.04 222.99"/>
        <g>
          <rect class="cls-7" x="145.86" y="146.37" width="8" height="14.67"/>
          <line class="cls-7" x1="145.86" y1="153.07" x2="153.86" y2="153.07"/>
        </g>
        <g>
          <rect class="cls-7" x="161.86" y="146.37" width="8" height="14.67"/>
          <line class="cls-7" x1="161.86" y1="153.07" x2="169.86" y2="153.07"/>
        </g>
        <polygon class="cls-4" points="246.41 82.41 206.73 143.82 213.39 143.82 246.31 93.61 278.33 143.82 284.99 143.82 246.41 82.41"/>
        <polyline class="cls-4" points="268.48 116.56 268.48 96.82 259.81 96.82 259.81 103.96"/>
        <polyline class="cls-4" points="278.33 143.82 278.33 246.74 214.33 246.74 214.33 143.82"/>
        <polygon class="cls-3" points="223.19 173.76 269.66 173.76 267.06 166.92 226.09 166.92 223.19 173.76"/>
        <polyline class="cls-7" points="258.73 167.24 258.73 145.24 252.09 145.24 252.09 167.24"/>
        <line class="cls-7" x1="258.31" y1="156.57" x2="252.51" y2="156.57"/>
        <polyline class="cls-3" points="249.56 145.57 249.56 141.14 261.76 141.14 261.76 145.57"/>
        <polyline class="cls-7" points="240.48 167.24 240.48 145.24 233.84 145.24 233.84 167.24"/>
        <line class="cls-7" x1="240.06" y1="156.57" x2="234.26" y2="156.57"/>
        <polyline class="cls-3" points="230.81 145.57 230.81 141.14 243.51 141.14 243.51 145.57"/>
        <g>
          <rect class="cls-7" x="236.19" y="192" width="19.67" height="4.14" transform="translate(492.05 388.13) rotate(-180)"/>
          <polyline class="cls-7" points="239.82 196.65 239.82 219.43 252.24 219.43 252.24 196.65"/>
          <line class="cls-7" x1="251.75" y1="203.48" x2="240.34" y2="203.48"/>
          <polyline class="cls-3" points="252.24 219.03 254.8 219.03 254.8 222 237.65 222 237.65 219.09 239.82 219.09"/>
        </g>
        <g>
          <rect class="cls-7" x="257.61" y="197.12" width="15.24" height="3.21" transform="translate(530.46 397.45) rotate(-180)"/>
          <polyline class="cls-7" points="260.42 200.73 260.42 218.37 270.04 218.37 270.04 200.73"/>
          <line class="cls-7" x1="269.66" y1="206.02" x2="260.82" y2="206.02"/>
          <polyline class="cls-3" points="270.04 217.97 272.03 217.97 272.03 220.28 258.74 220.28 258.74 218.02 260.42 218.02"/>
        </g>
        <g>
          <rect class="cls-7" x="219.31" y="197.12" width="15.24" height="3.21" transform="translate(453.86 397.45) rotate(-180)"/>
          <polyline class="cls-7" points="222.12 200.73 222.12 218.37 231.74 218.37 231.74 200.73"/>
          <line class="cls-7" x1="231.36" y1="206.02" x2="222.52" y2="206.02"/>
          <polyline class="cls-3" points="231.74 217.97 233.73 217.97 233.73 220.28 220.44 220.28 220.44 218.02 222.12 218.02"/>
        </g>
        <polyline class="cls-4" points="280.33 134.74 293.33 134.74 276.33 108.74 269.93 108.74"/>
        <g>
          <path class="cls-4" d="M213.49,177.74h-4.01s-3.71-2.74-3.71-2.74c-1.27-1.03-2.85-1.59-4.48-1.59h-14.11c-1.92,0-3.76.76-5.11,2.12l-2.21,2.21h-3.69"/>
          <line class="cls-4" x1="213.99" y1="167.04" x2="176.09" y2="167.04"/>
          <g>
            <g>
              <line class="cls-7" x1="209.76" y1="176.27" x2="209.85" y2="167.57"/>
              <line class="cls-7" x1="204.51" y1="175.21" x2="204.58" y2="167.38"/>
              <line class="cls-7" x1="199.27" y1="174.15" x2="199.3" y2="167.18"/>
              <line class="cls-7" x1="194.02" y1="173.09" x2="194.03" y2="166.99"/>
              <line class="cls-7" x1="189.06" y1="174.12" x2="189.05" y2="167.07"/>
              <line class="cls-7" x1="184.09" y1="175.14" x2="184.07" y2="167.14"/>
              <line class="cls-7" x1="179.13" y1="176.17" x2="179.09" y2="167.22"/>
            </g>
            <g>
              <line class="cls-4" x1="209.76" y1="176.27" x2="209.85" y2="167.57"/>
              <line class="cls-4" x1="204.51" y1="175.21" x2="204.58" y2="167.38"/>
              <line class="cls-4" x1="199.27" y1="174.15" x2="199.3" y2="167.18"/>
              <line class="cls-4" x1="194.02" y1="173.09" x2="194.03" y2="166.99"/>
              <line class="cls-4" x1="189.06" y1="174.12" x2="189.05" y2="167.07"/>
              <line class="cls-4" x1="184.09" y1="175.14" x2="184.07" y2="167.14"/>
              <line class="cls-4" x1="179.13" y1="176.17" x2="179.09" y2="167.22"/>
            </g>
          </g>
        </g>
        <g>
          <polygon class="cls-7" points="209.24 184.24 207.44 190.24 204.61 190.24 202.81 184.24 209.24 184.24"/>
          <line class="cls-7" x1="212.33" y1="192.24" x2="199.33" y2="192.24"/>
        </g>
        <line class="cls-7" x1="207.83" y1="183.74" x2="207.83" y2="177.74"/>
        <line class="cls-7" x1="203.83" y1="183.74" x2="203.83" y2="174.74"/>
        <line class="cls-7" x1="208.23" y1="192.74" x2="208.23" y2="228.44"/>
        <line class="cls-7" x1="203.83" y1="192.74" x2="203.83" y2="228.44"/>
        <polyline class="cls-7" points="210.1 232.74 210.1 228.24 202.1 228.24 202.1 232.74"/>
        <line class="cls-4" x1="212.99" y1="232.91" x2="175.99" y2="232.91"/>
        <line class="cls-4" x1="212.83" y1="240.24" x2="141.36" y2="240.24"/>
        <line class="cls-7" x1="204.71" y1="190.24" x2="203.43" y2="192.24"/>
        <line class="cls-7" x1="207.28" y1="190.24" x2="208.56" y2="192.24"/>
        <polyline class="cls-7" points="202.33 232.49 184.08 232.49 184.08 198.24 203.33 198.24"/>
        <rect class="cls-3" x="196.7" y="201.99" width="4.38" height="17.38" transform="translate(397.78 421.35) rotate(-180)"/>
        <rect class="cls-3" x="186.83" y="201.99" width="4.38" height="17.38" transform="translate(378.03 421.35) rotate(-180)"/>
        <rect class="cls-7" x="196.7" y="224.74" width="4.38" height="2.29" transform="translate(397.78 451.77) rotate(-180)"/>
        <rect class="cls-7" x="186.83" y="224.74" width="4.38" height="2.29" transform="translate(378.03 451.77) rotate(-180)"/>
        <line class="cls-7" x1="194.05" y1="198.36" x2="194.05" y2="231.61"/>
        <polyline class="cls-7" points="192.14 220.66 192.14 222.99 190.93 222.99"/>
        <polyline class="cls-7" points="195.93 220.66 195.93 222.99 197.14 222.99"/>
        <line class="cls-4" x1="215.66" y1="131.74" x2="138.53" y2="131.74"/>
        <g>
          <rect class="cls-7" x="200.33" y="146.37" width="8" height="14.67" transform="translate(408.65 307.41) rotate(-180)"/>
          <line class="cls-7" x1="208.33" y1="153.07" x2="200.33" y2="153.07"/>
        </g>
        <g>
          <rect class="cls-7" x="184.33" y="146.37" width="8" height="14.67" transform="translate(376.65 307.41) rotate(-180)"/>
          <line class="cls-7" x1="192.33" y1="153.07" x2="184.33" y2="153.07"/>
        </g>
        <polyline class="cls-4" points="228.19 108.74 177.26 108.74 176.93 108.74 125.99 108.74"/>
      </g>
      <polyline class="cls-4" points="319.7 90.68 319.7 185.14 410.19 185.14 410.19 90.68"/>
      <rect class="cls-4" x="314.28" y="84.42" width="101.33" height="5.64"/>
      <rect class="cls-4" x="310.07" y="77.62" width="109.74" height="6.49"/>
      <g>
        <path class="cls-7" d="M340.29,107.44h0c2.97,0,5.37,2.41,5.37,5.37v12.28h-10.75v-12.28c0-2.97,2.41-5.37,5.37-5.37Z"/>
        <polyline class="cls-3" points="334.42 124.94 331.96 124.94 331.96 128.24 348.62 128.24 348.62 124.94 345.16 124.94"/>
        <line class="cls-7" x1="334.66" y1="118.93" x2="345.92" y2="118.93"/>
        <line class="cls-7" x1="340.29" y1="118.93" x2="340.29" y2="124.56"/>
      </g>
      <g>
        <path class="cls-7" d="M364.58,107.44h0c2.97,0,5.37,2.41,5.37,5.37v12.28h-10.75v-12.28c0-2.97,2.41-5.37,5.37-5.37Z"/>
        <polyline class="cls-3" points="358.7 124.94 356.25 124.94 356.25 128.24 372.9 128.24 372.9 124.94 369.45 124.94"/>
        <line class="cls-7" x1="358.95" y1="118.93" x2="370.2" y2="118.93"/>
        <line class="cls-7" x1="364.58" y1="118.93" x2="364.58" y2="124.56"/>
      </g>
      <g>
        <path class="cls-7" d="M388.86,107.44h0c2.97,0,5.37,2.41,5.37,5.37v12.28h-10.75v-12.28c0-2.97,2.41-5.37,5.37-5.37Z"/>
        <polyline class="cls-3" points="382.99 124.94 380.53 124.94 380.53 128.24 397.19 128.24 397.19 124.94 393.73 124.94"/>
        <line class="cls-7" x1="383.23" y1="118.93" x2="394.49" y2="118.93"/>
        <line class="cls-7" x1="388.86" y1="118.93" x2="388.86" y2="124.56"/>
      </g>
      <g>
        <path class="cls-7" d="M340.29,146.62h0c2.97,0,5.37,2.41,5.37,5.37v12.28h-10.75v-12.28c0-2.97,2.41-5.37,5.37-5.37Z"/>
        <polyline class="cls-3" points="334.42 164.12 331.96 164.12 331.96 167.42 348.62 167.42 348.62 164.12 345.16 164.12"/>
        <line class="cls-7" x1="334.66" y1="158.11" x2="345.92" y2="158.11"/>
        <line class="cls-7" x1="340.29" y1="158.11" x2="340.29" y2="163.73"/>
      </g>
      <g>
        <path class="cls-7" d="M364.58,146.62h0c2.97,0,5.37,2.41,5.37,5.37v12.28h-10.75v-12.28c0-2.97,2.41-5.37,5.37-5.37Z"/>
        <polyline class="cls-3" points="358.7 164.12 356.25 164.12 356.25 167.42 372.9 167.42 372.9 164.12 369.45 164.12"/>
        <line class="cls-7" x1="358.95" y1="158.11" x2="370.2" y2="158.11"/>
        <line class="cls-7" x1="364.58" y1="158.11" x2="364.58" y2="163.73"/>
      </g>
      <g>
        <path class="cls-7" d="M388.86,146.62h0c2.97,0,5.37,2.41,5.37,5.37v12.28h-10.75v-12.28c0-2.97,2.41-5.37,5.37-5.37Z"/>
        <polyline class="cls-3" points="382.99 164.12 380.53 164.12 380.53 167.42 397.19 167.42 397.19 164.12 393.73 164.12"/>
        <line class="cls-7" x1="383.23" y1="158.11" x2="394.49" y2="158.11"/>
        <line class="cls-7" x1="388.86" y1="158.11" x2="388.86" y2="163.73"/>
      </g>
      <line class="cls-4" x1="310.86" y1="246.11" x2="310.86" y2="208.34"/>
      <line class="cls-4" x1="310.86" y1="198.54" x2="310.86" y2="191.44"/>
      <line class="cls-4" x1="419.7" y1="246.11" x2="419.7" y2="208.34"/>
      <line class="cls-4" x1="419.7" y1="198.54" x2="419.7" y2="192.94"/>
      <rect class="cls-4" x="305.96" y="198.54" width="118.5" height="9.8"/>
      <line class="cls-4" x1="333.53" y1="210.04" x2="333.53" y2="246.94"/>
      <rect class="cls-7" x="337.96" y="213.72" width="77.33" height="18.67"/>
      <line class="cls-7" x1="363.46" y1="213.98" x2="363.46" y2="231.98"/>
      <line class="cls-7" x1="391.83" y1="213.98" x2="391.83" y2="231.52"/>
      <polyline class="cls-4" points="319.66 185.14 302.86 185.14 302.86 191.44 420.36 191.44 427.36 191.44 427.36 185.54 409.36 185.54"/>
      <rect class="cls-3" x="315.79" y="212.95" width="13" height="27.5"/>
      <polyline class="cls-4" points="411.36 117.44 470.66 117.44 470.66 150.44 410.36 150.44"/>
      <polyline class="cls-4" points="466.46 151.94 466.46 155.94 410.36 155.94"/>
      <line class="cls-4" x1="460.86" y1="247.44" x2="460.86" y2="239.94"/>
      <line class="cls-4" x1="460.86" y1="222.27" x2="460.86" y2="216.61"/>
      <line class="cls-4" x1="460.86" y1="198.94" x2="460.86" y2="193.27"/>
      <line class="cls-4" x1="460.86" y1="175.61" x2="460.86" y2="169.94"/>
      <line class="cls-4" x1="460.86" y1="163.94" x2="460.86" y2="156.44"/>
      <line class="cls-4" x1="460.86" y1="187.27" x2="460.86" y2="181.61"/>
      <line class="cls-4" x1="460.86" y1="210.61" x2="460.86" y2="204.94"/>
      <line class="cls-4" x1="460.86" y1="233.94" x2="460.86" y2="228.27"/>
      <rect class="cls-4" x="455.36" y="163.94" width="9" height="6"/>
      <rect class="cls-4" x="455.36" y="175.61" width="9" height="6"/>
      <rect class="cls-4" x="455.36" y="187.27" width="9" height="6"/>
      <rect class="cls-4" x="455.36" y="198.94" width="9" height="6"/>
      <rect class="cls-4" x="455.36" y="210.61" width="9" height="6"/>
      <rect class="cls-4" x="455.36" y="222.27" width="9" height="6"/>
      <rect class="cls-4" x="455.36" y="233.94" width="9" height="6"/>
      <g>
        <line class="cls-4" x1="416.16" y1="121.44" x2="416.16" y2="145.44"/>
        <line class="cls-4" x1="420.6" y1="121.44" x2="420.6" y2="145.44"/>
        <line class="cls-4" x1="425.03" y1="121.44" x2="425.03" y2="145.44"/>
        <line class="cls-4" x1="429.47" y1="121.44" x2="429.47" y2="145.44"/>
        <line class="cls-4" x1="433.9" y1="121.44" x2="433.9" y2="145.44"/>
        <line class="cls-4" x1="438.34" y1="121.44" x2="438.34" y2="145.44"/>
        <line class="cls-4" x1="442.78" y1="121.44" x2="442.78" y2="145.44"/>
        <line class="cls-4" x1="447.21" y1="121.44" x2="447.21" y2="145.44"/>
        <line class="cls-4" x1="451.65" y1="121.44" x2="451.65" y2="145.44"/>
        <line class="cls-4" x1="456.09" y1="121.44" x2="456.09" y2="145.44"/>
        <line class="cls-4" x1="460.52" y1="121.44" x2="460.52" y2="145.44"/>
        <line class="cls-4" x1="464.96" y1="121.44" x2="464.96" y2="145.44"/>
      </g>
      <g>
        <line class="cls-7" x1="418.42" y1="164.44" x2="429.92" y2="164.44"/>
        <polyline class="cls-7" points="420.92 164.44 420.92 174.44 427.42 174.44 427.42 163.94"/>
        <line class="cls-7" x1="421.42" y1="167.94" x2="426.92" y2="167.94"/>
        <rect class="cls-3" x="418.17" y="174.64" width="12" height="2.5"/>
      </g>
      <g>
        <line class="cls-7" x1="438.11" y1="164.44" x2="449.61" y2="164.44"/>
        <polyline class="cls-7" points="440.61 164.44 440.61 174.44 447.11 174.44 447.11 163.94"/>
        <line class="cls-7" x1="441.11" y1="167.94" x2="446.61" y2="167.94"/>
        <rect class="cls-3" x="437.86" y="174.64" width="12" height="2.5"/>
      </g>
      <g>
        <line class="cls-7" x1="418.42" y1="193.44" x2="429.92" y2="193.44"/>
        <polyline class="cls-7" points="424.11 203.44 427.42 203.44 427.42 192.94"/>
        <line class="cls-7" x1="420.92" y1="193.44" x2="420.92" y2="199.94"/>
        <line class="cls-7" x1="421.42" y1="196.94" x2="426.92" y2="196.94"/>
        <rect class="cls-3" x="426.11" y="203.64" width="4.06" height="2.5"/>
      </g>
      <g>
        <line class="cls-7" x1="438.11" y1="193.44" x2="449.61" y2="193.44"/>
        <polyline class="cls-7" points="440.61 193.44 440.61 203.44 447.11 203.44 447.11 192.94"/>
        <line class="cls-7" x1="441.11" y1="196.94" x2="446.61" y2="196.94"/>
        <rect class="cls-3" x="437.86" y="203.64" width="12" height="2.5"/>
      </g>
      <g>
        <line class="cls-7" x1="418.42" y1="222.44" x2="429.92" y2="222.44"/>
        <polyline class="cls-7" points="420.92 222.44 420.92 232.44 427.42 232.44 427.42 221.94"/>
        <line class="cls-7" x1="421.42" y1="225.94" x2="426.92" y2="225.94"/>
        <rect class="cls-3" x="421.12" y="232.64" width="9.05" height="2.5"/>
      </g>
      <g>
        <line class="cls-7" x1="438.11" y1="222.44" x2="449.61" y2="222.44"/>
        <polyline class="cls-7" points="440.61 222.44 440.61 232.44 447.11 232.44 447.11 221.94"/>
        <line class="cls-7" x1="441.11" y1="225.94" x2="446.61" y2="225.94"/>
        <rect class="cls-3" x="437.86" y="232.64" width="12" height="2.5"/>
      </g>
      <g>
        <circle class="cls-6" cx="486.26" cy="215.08" r="18"/>
        <circle class="cls-3" cx="490.76" cy="217.27" r="11.5"/>
        <line class="cls-4" x1="486.26" y1="233.08" x2="486.26" y2="246.08"/>
        <line class="cls-7" x1="486.26" y1="233.08" x2="486.26" y2="211.41"/>
        <line class="cls-7" x1="486.19" y1="224.41" x2="492.86" y2="224.41"/>
        <line class="cls-7" x1="486.26" y1="219.08" x2="479.59" y2="219.08"/>
      </g>
      <g>
        <circle class="cls-6" cx="293.19" cy="215.08" r="18"/>
        <circle class="cls-3" cx="297.69" cy="217.27" r="11.5"/>
        <line class="cls-4" x1="293.19" y1="233.08" x2="293.19" y2="246.08"/>
        <line class="cls-7" x1="293.19" y1="233.08" x2="293.19" y2="211.41"/>
        <line class="cls-7" x1="293.13" y1="224.41" x2="299.79" y2="224.41"/>
        <line class="cls-7" x1="293.19" y1="219.08" x2="286.53" y2="219.08"/>
      </g>
    </g>
  </g>
</svg>