<?xml version="1.0" encoding="UTF-8"?>
<svg id="Layer_2" data-name="Layer 2" xmlns="http://www.w3.org/2000/svg" viewBox="0 0 278.14 114.16">
  <defs>
    <style>
      .cls-1, .cls-2 {
        stroke-width: 3px;
      }

      .cls-1, .cls-2, .cls-3 {
        stroke: #312775;
        stroke-miterlimit: 10;
      }

      .cls-1, .cls-3 {
        fill: none;
      }

      .cls-4, .cls-2 {
        fill: #fff;
      }

      .cls-4, .cls-5 {
        stroke-width: 0px;
      }

      .cls-5 {
        fill: #f8aeb8;
      }
    </style>
  </defs>
  <g id="results_page" data-name="results page">
    <g>
      <line class="cls-1" x1="7.44" y1="112.66" x2="273.93" y2="112.66"/>
      <polygon class="cls-4" points="114.54 72.66 155.69 72.66 155.69 59.31 142.51 59.31 142.51 46.43 129.16 46.43 129.16 32.67 114.65 32.67 114.54 72.66"/>
      <rect class="cls-2" x="15.91" y="5.04" width="63.85" height="107.39"/>
      <rect class="cls-2" x="79.82" y="32.44" width="34.83" height="79.7"/>
      <rect class="cls-5" x="37.1" y="85.44" width="22.06" height="11.9"/>
      <rect class="cls-5" x="37.1" y="68.72" width="22.06" height="11.9"/>
      <rect class="cls-5" x="37.1" y="51.69" width="22.06" height="11.9"/>
      <rect class="cls-5" x="37.1" y="35.11" width="22.06" height="11.9"/>
      <rect class="cls-5" x="37.1" y="18.68" width="22.06" height="11.9"/>
      <rect class="cls-2" x="114.54" y="72.66" width="69.48" height="39.47"/>
      <polyline class="cls-1" points="129.16 32.67 129.16 46.43 142.51 46.43 142.51 59.31 155.69 59.31 155.69 72.84"/>
      <g>
        <rect class="cls-3" x="58.87" y="10.27" width="15.67" height="96.94"/>
        <line class="cls-3" x1="64.67" y1="40.16" x2="64.67" y2="27.39"/>
        <line class="cls-3" x1="64.67" y1="73.83" x2="64.67" y2="60.48"/>
        <line class="cls-3" x1="64.67" y1="106.91" x2="64.67" y2="94.14"/>
        <line class="cls-3" x1="64.67" y1="90.66" x2="64.67" y2="77.31"/>
        <line class="cls-3" x1="64.67" y1="56.99" x2="64.67" y2="43.64"/>
        <line class="cls-3" x1="64.67" y1="23.33" x2="64.67" y2="10.56"/>
        <line class="cls-3" x1="69.32" y1="40.16" x2="69.32" y2="27.39"/>
        <line class="cls-3" x1="69.32" y1="73.83" x2="69.32" y2="60.48"/>
        <line class="cls-3" x1="69.32" y1="106.91" x2="69.32" y2="94.14"/>
        <line class="cls-3" x1="69.32" y1="90.66" x2="69.32" y2="77.31"/>
        <line class="cls-3" x1="69.32" y1="56.99" x2="69.32" y2="43.64"/>
        <line class="cls-3" x1="69.32" y1="23.33" x2="69.32" y2="10.56"/>
        <g>
          <line class="cls-3" x1="58.58" y1="23.04" x2="74.6" y2="23.04"/>
          <line class="cls-3" x1="58.58" y1="27.1" x2="74.6" y2="27.1"/>
        </g>
        <g>
          <line class="cls-3" x1="58.58" y1="39.87" x2="74.6" y2="39.87"/>
          <line class="cls-3" x1="58.58" y1="43.93" x2="74.6" y2="43.93"/>
        </g>
        <g>
          <line class="cls-3" x1="58.58" y1="56.7" x2="74.6" y2="56.7"/>
          <line class="cls-3" x1="58.58" y1="60.77" x2="74.6" y2="60.77"/>
        </g>
        <g>
          <line class="cls-3" x1="58.58" y1="73.54" x2="74.6" y2="73.54"/>
          <line class="cls-3" x1="58.58" y1="77.6" x2="74.6" y2="77.6"/>
        </g>
        <g>
          <line class="cls-3" x1="58.58" y1="90.37" x2="74.6" y2="90.37"/>
          <line class="cls-3" x1="58.58" y1="94.43" x2="74.6" y2="94.43"/>
        </g>
      </g>
      <g>
        <rect class="cls-3" x="21.72" y="10.27" width="15.67" height="96.94"/>
        <line class="cls-3" x1="26.94" y1="40.16" x2="26.94" y2="27.39"/>
        <line class="cls-3" x1="26.94" y1="73.83" x2="26.94" y2="60.48"/>
        <line class="cls-3" x1="26.94" y1="106.91" x2="26.94" y2="94.14"/>
        <line class="cls-3" x1="26.94" y1="90.66" x2="26.94" y2="77.31"/>
        <line class="cls-3" x1="26.94" y1="56.99" x2="26.94" y2="43.64"/>
        <line class="cls-3" x1="26.94" y1="23.33" x2="26.94" y2="10.56"/>
        <line class="cls-3" x1="31.59" y1="40.16" x2="31.59" y2="27.39"/>
        <line class="cls-3" x1="31.59" y1="73.83" x2="31.59" y2="60.48"/>
        <line class="cls-3" x1="31.59" y1="106.91" x2="31.59" y2="94.14"/>
        <line class="cls-3" x1="31.59" y1="90.66" x2="31.59" y2="77.31"/>
        <line class="cls-3" x1="31.59" y1="56.99" x2="31.59" y2="43.64"/>
        <line class="cls-3" x1="31.59" y1="23.33" x2="31.59" y2="10.56"/>
        <g>
          <line class="cls-3" x1="21.72" y1="23.04" x2="37.62" y2="23.04"/>
          <line class="cls-3" x1="21.72" y1="27.1" x2="37.62" y2="27.1"/>
        </g>
        <g>
          <line class="cls-3" x1="21.72" y1="39.87" x2="37.62" y2="39.87"/>
          <line class="cls-3" x1="21.72" y1="43.93" x2="37.62" y2="43.93"/>
        </g>
        <g>
          <line class="cls-3" x1="21.72" y1="56.7" x2="37.62" y2="56.7"/>
          <line class="cls-3" x1="21.72" y1="60.77" x2="37.62" y2="60.77"/>
        </g>
        <g>
          <line class="cls-3" x1="21.72" y1="73.54" x2="37.62" y2="73.54"/>
          <line class="cls-3" x1="21.72" y1="77.6" x2="37.62" y2="77.6"/>
        </g>
        <g>
          <line class="cls-3" x1="21.72" y1="90.37" x2="37.62" y2="90.37"/>
          <line class="cls-3" x1="21.72" y1="94.43" x2="37.62" y2="94.43"/>
        </g>
      </g>
      <rect class="cls-1" x="11.1" y="1.5" width="73.72" height="3.25"/>
      <g>
        <rect class="cls-3" x="86.15" y="40.46" width="22.06" height="63.27"/>
        <line class="cls-3" x1="94.28" y1="70.36" x2="94.28" y2="57.59"/>
        <line class="cls-3" x1="94.28" y1="104.02" x2="94.28" y2="91.25"/>
        <line class="cls-3" x1="94.28" y1="87.19" x2="94.28" y2="74.42"/>
        <line class="cls-3" x1="94.28" y1="53.52" x2="94.28" y2="40.75"/>
        <line class="cls-3" x1="100.66" y1="70.36" x2="100.66" y2="57.59"/>
        <line class="cls-3" x1="100.66" y1="104.02" x2="100.66" y2="91.25"/>
        <line class="cls-3" x1="100.66" y1="87.19" x2="100.66" y2="74.42"/>
        <line class="cls-3" x1="100.66" y1="53.52" x2="100.66" y2="40.75"/>
        <g>
          <line class="cls-3" x1="86.32" y1="53.81" x2="108.5" y2="53.81"/>
          <line class="cls-3" x1="86.32" y1="57.3" x2="108.5" y2="57.3"/>
        </g>
        <g>
          <line class="cls-3" x1="86.32" y1="70.65" x2="108.5" y2="70.65"/>
          <line class="cls-3" x1="86.32" y1="74.13" x2="108.5" y2="74.13"/>
        </g>
        <g>
          <line class="cls-3" x1="86.32" y1="86.9" x2="108.5" y2="86.9"/>
          <line class="cls-3" x1="86.32" y1="90.96" x2="108.5" y2="90.96"/>
        </g>
      </g>
      <rect class="cls-2" x="79.88" y="29.17" width="53.54" height="3.25"/>
      <polyline class="cls-1" points="128.78 38.61 139.22 38.61 139.22 46.74"/>
      <line class="cls-1" x1="139.22" y1="38.61" x2="142.9" y2="38.61"/>
      <polyline class="cls-1" points="142.19 51.09 152.63 51.09 152.63 59.22"/>
      <line class="cls-1" x1="152.63" y1="51.09" x2="156.31" y2="51.09"/>
      <polyline class="cls-1" points="155.83 64.15 166.27 64.15 166.27 72.28"/>
      <line class="cls-1" x1="166.27" y1="64.15" x2="169.95" y2="64.15"/>
      <polyline class="cls-5" points="128.35 47.24 119.06 47.24 119.06 43 128.35 43"/>
      <polyline class="cls-5" points="141.59 60.18 132.3 60.18 132.3 55.95 141.59 55.95"/>
      <polyline class="cls-5" points="154.76 71.85 145.47 71.85 145.47 67.61 154.76 67.61"/>
      <g>
        <rect class="cls-3" x="160.45" y="77.61" width="15.67" height="29.6"/>
        <line class="cls-3" x1="165.67" y1="107.51" x2="165.67" y2="94.74"/>
        <line class="cls-3" x1="165.67" y1="90.67" x2="165.67" y2="77.9"/>
        <line class="cls-3" x1="170.32" y1="107.51" x2="170.32" y2="94.74"/>
        <line class="cls-3" x1="170.32" y1="90.67" x2="170.32" y2="77.9"/>
        <g>
          <line class="cls-3" x1="160.39" y1="90.96" x2="176.18" y2="90.96"/>
          <line class="cls-3" x1="160.39" y1="94.45" x2="176.18" y2="94.45"/>
        </g>
        <rect class="cls-3" x="122.72" y="77.61" width="15.67" height="29.6"/>
        <line class="cls-3" x1="128.52" y1="107.51" x2="128.52" y2="94.74"/>
        <line class="cls-3" x1="128.52" y1="90.67" x2="128.52" y2="77.9"/>
        <line class="cls-3" x1="133.17" y1="107.51" x2="133.17" y2="94.74"/>
        <line class="cls-3" x1="133.17" y1="90.67" x2="133.17" y2="77.9"/>
        <g>
          <line class="cls-3" x1="122.43" y1="90.96" x2="138.22" y2="90.96"/>
          <line class="cls-3" x1="122.43" y1="94.45" x2="138.22" y2="94.45"/>
        </g>
        <g>
          <line class="cls-3" x1="138.8" y1="86.32" x2="160.74" y2="86.32"/>
          <line class="cls-3" x1="138.8" y1="96.77" x2="160.74" y2="96.77"/>
        </g>
      </g>
      <g>
        <rect class="cls-4" x="191.94" y="93.58" width="28.59" height="14.8"/>
        <line class="cls-1" x1="191.17" y1="108.52" x2="191.17" y2="92.88"/>
        <line class="cls-1" x1="221.56" y1="92.88" x2="221.56" y2="108.52"/>
        <polyline class="cls-2" points="189.72 54.77 188.08 54.77 188.08 51.49 224.07 51.49 224.07 54.77 222.83 54.77"/>
        <polyline class="cls-2" points="191.17 57.4 189.72 57.4 189.72 54.77 222.83 54.77 222.83 57.4 221.56 57.4"/>
        <polyline class="cls-2" points="191.17 90.88 191.17 57.4 221.56 57.4 221.56 90.88"/>
        <rect class="cls-2" x="189.35" y="90.12" width="33.84" height="2.76"/>
        <rect class="cls-2" x="190.26" y="109.25" width="32.02" height="2.94"/>
        <g>
          <polyline class="cls-5" points="197.31 69.49 195.28 69.49 195.28 71.81 203.4 71.81 203.4 69.49 201.95 69.49"/>
          <rect class="cls-3" x="197.02" y="61.94" width="4.64" height="7.55"/>
          <line class="cls-3" x1="195.57" y1="62.52" x2="197.31" y2="62.52"/>
          <line class="cls-3" x1="201.95" y1="62.52" x2="203.11" y2="62.52"/>
          <line class="cls-3" x1="197.31" y1="65.42" x2="201.37" y2="65.42"/>
        </g>
        <g>
          <polyline class="cls-5" points="210.66 69.49 208.63 69.49 208.63 71.81 216.76 71.81 216.76 69.49 215.3 69.49"/>
          <rect class="cls-3" x="210.37" y="61.94" width="4.64" height="7.55"/>
          <line class="cls-3" x1="208.92" y1="62.52" x2="210.66" y2="62.52"/>
          <line class="cls-3" x1="215.3" y1="62.52" x2="216.46" y2="62.52"/>
          <line class="cls-3" x1="210.66" y1="65.42" x2="214.72" y2="65.42"/>
        </g>
        <g>
          <polyline class="cls-5" points="197.31 83.42 195.28 83.42 195.28 85.74 203.4 85.74 203.4 83.42 201.95 83.42"/>
          <rect class="cls-3" x="197.02" y="75.87" width="4.64" height="7.55"/>
          <line class="cls-3" x1="195.57" y1="76.45" x2="197.31" y2="76.45"/>
          <line class="cls-3" x1="201.95" y1="76.45" x2="203.11" y2="76.45"/>
          <line class="cls-3" x1="197.31" y1="79.35" x2="201.37" y2="79.35"/>
        </g>
        <g>
          <polyline class="cls-5" points="210.66 83.42 208.63 83.42 208.63 85.74 216.76 85.74 216.76 83.42 215.3 83.42"/>
          <rect class="cls-3" x="210.37" y="75.87" width="4.64" height="7.55"/>
          <line class="cls-3" x1="208.92" y1="76.45" x2="210.66" y2="76.45"/>
          <line class="cls-3" x1="215.3" y1="76.45" x2="216.46" y2="76.45"/>
          <line class="cls-3" x1="210.66" y1="79.35" x2="214.72" y2="79.35"/>
        </g>
        <g>
          <polyline class="cls-5" points="197.31 103.73 195.28 103.73 195.28 106.06 203.4 106.06 203.4 103.73 201.95 103.73"/>
          <rect class="cls-3" x="197.02" y="96.19" width="4.64" height="7.55"/>
          <line class="cls-3" x1="195.57" y1="97.12" x2="197.31" y2="97.12"/>
          <line class="cls-3" x1="201.95" y1="97.12" x2="203.11" y2="97.12"/>
          <line class="cls-3" x1="197.31" y1="99.09" x2="201.37" y2="99.09"/>
        </g>
        <g>
          <polyline class="cls-5" points="210.66 103.73 208.63 103.73 208.63 106.06 216.76 106.06 216.76 103.73 215.3 103.73"/>
          <rect class="cls-3" x="210.37" y="96.19" width="4.64" height="7.55"/>
          <line class="cls-3" x1="208.92" y1="97.12" x2="210.66" y2="97.12"/>
          <line class="cls-3" x1="215.3" y1="97.12" x2="216.46" y2="97.12"/>
          <line class="cls-3" x1="210.66" y1="99.09" x2="214.72" y2="99.09"/>
        </g>
      </g>
      <g>
        <rect class="cls-4" x="230.83" y="93.58" width="28.59" height="14.8"/>
        <line class="cls-1" x1="230.06" y1="108.52" x2="230.06" y2="92.88"/>
        <line class="cls-1" x1="260.45" y1="92.88" x2="260.45" y2="108.52"/>
        <polyline class="cls-2" points="228.61 54.77 226.97 54.77 226.97 51.49 262.96 51.49 262.96 54.77 261.72 54.77"/>
        <polyline class="cls-2" points="230.06 57.4 228.61 57.4 228.61 54.77 261.72 54.77 261.72 57.4 260.45 57.4"/>
        <polyline class="cls-2" points="230.06 90.88 230.06 57.4 260.45 57.4 260.45 90.88"/>
        <rect class="cls-2" x="228.25" y="90.12" width="33.84" height="2.76"/>
        <rect class="cls-2" x="229.15" y="109.25" width="32.02" height="2.94"/>
        <g>
          <polyline class="cls-5" points="236.2 69.49 234.17 69.49 234.17 71.81 242.3 71.81 242.3 69.49 240.84 69.49"/>
          <rect class="cls-3" x="235.91" y="61.94" width="4.64" height="7.55"/>
          <line class="cls-3" x1="234.46" y1="62.52" x2="236.2" y2="62.52"/>
          <line class="cls-3" x1="240.84" y1="62.52" x2="242.01" y2="62.52"/>
          <line class="cls-3" x1="236.2" y1="65.42" x2="240.26" y2="65.42"/>
        </g>
        <g>
          <polyline class="cls-5" points="249.55 69.49 247.52 69.49 247.52 71.81 255.65 71.81 255.65 69.49 254.2 69.49"/>
          <rect class="cls-3" x="249.26" y="61.94" width="4.64" height="7.55"/>
          <line class="cls-3" x1="247.81" y1="62.52" x2="249.55" y2="62.52"/>
          <line class="cls-3" x1="254.2" y1="62.52" x2="255.36" y2="62.52"/>
          <line class="cls-3" x1="249.55" y1="65.42" x2="253.61" y2="65.42"/>
        </g>
        <g>
          <polyline class="cls-5" points="236.2 83.42 234.17 83.42 234.17 85.74 242.3 85.74 242.3 83.42 240.84 83.42"/>
          <rect class="cls-3" x="235.91" y="75.87" width="4.64" height="7.55"/>
          <line class="cls-3" x1="234.46" y1="76.45" x2="236.2" y2="76.45"/>
          <line class="cls-3" x1="240.84" y1="76.45" x2="242.01" y2="76.45"/>
          <line class="cls-3" x1="236.2" y1="79.35" x2="240.26" y2="79.35"/>
        </g>
        <g>
          <polyline class="cls-5" points="249.55 83.42 247.52 83.42 247.52 85.74 255.65 85.74 255.65 83.42 254.2 83.42"/>
          <rect class="cls-3" x="249.26" y="75.87" width="4.64" height="7.55"/>
          <line class="cls-3" x1="247.81" y1="76.45" x2="249.55" y2="76.45"/>
          <line class="cls-3" x1="254.2" y1="76.45" x2="255.36" y2="76.45"/>
          <line class="cls-3" x1="249.55" y1="79.35" x2="253.61" y2="79.35"/>
        </g>
        <g>
          <polyline class="cls-5" points="236.2 103.73 234.17 103.73 234.17 106.06 242.3 106.06 242.3 103.73 240.84 103.73"/>
          <rect class="cls-3" x="235.91" y="96.19" width="4.64" height="7.55"/>
          <line class="cls-3" x1="234.46" y1="97.12" x2="236.2" y2="97.12"/>
          <line class="cls-3" x1="240.84" y1="97.12" x2="242.01" y2="97.12"/>
          <line class="cls-3" x1="236.2" y1="99.09" x2="240.26" y2="99.09"/>
        </g>
        <g>
          <polyline class="cls-5" points="249.55 103.73 247.52 103.73 247.52 106.06 255.65 106.06 255.65 103.73 254.2 103.73"/>
          <rect class="cls-3" x="249.26" y="96.19" width="4.64" height="7.55"/>
          <line class="cls-3" x1="247.81" y1="97.12" x2="249.55" y2="97.12"/>
          <line class="cls-3" x1="254.2" y1="97.12" x2="255.36" y2="97.12"/>
          <line class="cls-3" x1="249.55" y1="99.09" x2="253.61" y2="99.09"/>
        </g>
      </g>
      <polyline class="cls-5" points="131.28 90.64 138.65 90.64 138.65 94.7 131.43 94.7"/>
      <polyline class="cls-5" points="160.16 90.64 176.41 90.64 176.41 94.7 160.16 94.7"/>
      <g>
        <circle class="cls-2" cx="11.95" cy="93.95" r="10.45"/>
        <circle class="cls-5" cx="14.56" cy="95.22" r="6.68"/>
        <line class="cls-1" x1="11.95" y1="104.4" x2="11.95" y2="111.94"/>
        <line class="cls-3" x1="11.95" y1="104.4" x2="11.95" y2="91.82"/>
        <line class="cls-3" x1="11.91" y1="99.37" x2="15.78" y2="99.37"/>
        <line class="cls-3" x1="11.95" y1="96.27" x2="8.08" y2="96.27"/>
      </g>
      <g>
        <circle class="cls-2" cx="120.5" cy="93.95" r="10.45"/>
        <circle class="cls-5" cx="123.11" cy="95.22" r="6.68"/>
        <line class="cls-1" x1="120.5" y1="104.4" x2="120.5" y2="111.94"/>
        <line class="cls-3" x1="120.5" y1="104.4" x2="120.5" y2="91.82"/>
        <line class="cls-3" x1="120.46" y1="99.37" x2="124.33" y2="99.37"/>
        <line class="cls-3" x1="120.5" y1="96.27" x2="116.63" y2="96.27"/>
      </g>
      <g>
        <circle class="cls-2" cx="266.19" cy="93.95" r="10.45"/>
        <circle class="cls-5" cx="268.8" cy="95.22" r="6.68"/>
        <line class="cls-1" x1="266.19" y1="104.4" x2="266.19" y2="111.94"/>
        <line class="cls-3" x1="266.19" y1="104.4" x2="266.19" y2="91.82"/>
        <line class="cls-3" x1="266.15" y1="99.37" x2="270.02" y2="99.37"/>
        <line class="cls-3" x1="266.19" y1="96.27" x2="262.32" y2="96.27"/>
      </g>
      <rect class="cls-5" x="85.8" y="53.52" width="22.7" height="4.06"/>
      <rect class="cls-5" x="85.8" y="70.36" width="22.7" height="4.06"/>
      <rect class="cls-5" x="85.8" y="86.41" width="22.7" height="4.88"/>
    </g>
  </g>
</svg>