<?xml version="1.0" encoding="UTF-8"?>
<svg id="Layer_2" data-name="Layer 2" xmlns="http://www.w3.org/2000/svg" viewBox="0 0 596.41 251.3">
  <defs>
    <style>
      .cls-1 {
        fill: #312775;
      }

      .cls-1, .cls-2, .cls-3, .cls-4 {
        stroke-width: 0px;
      }

      .cls-2 {
        fill: #d9d9ff;
      }

      .cls-5, .cls-6, .cls-7, .cls-8 {
        stroke-miterlimit: 10;
      }

      .cls-5, .cls-6, .cls-8 {
        fill: none;
      }

      .cls-5, .cls-7 {
        stroke-width: 3px;
      }

      .cls-5, .cls-7, .cls-8 {
        stroke: #312775;
      }

      .cls-6 {
        stroke: #352a82;
        stroke-linecap: round;
        stroke-width: 2px;
      }

      .cls-3, .cls-7 {
        fill: #fff;
      }

      .cls-4 {
        fill: #f8aeb8;
      }
    </style>
  </defs>
  <g id="_0_saved_listings" data-name="0 saved listings">
    <g>
      <path class="cls-2" d="M472.61,223.8c88.79,22.48,104.2-99.58,69.33-157.16C513.27,19.31,454.73-.02,402.76,3.12c-55.89,3.38-97.29,42.88-150.48,49.83-52.39,6.84-94.83-34.08-143.7-45.21-11.54-2.63-23.69-3.76-35.13-.7C17.26,22.09,14.51,162.63,38.92,200.89c12.03,18.85,31.8,31.35,52.61,38.46,34.1,11.66,72.35,17.16,106.98,5.44,36.49-12.35,68.39-35.31,106.4-43.93,38.85-8.81,78.86-3.37,116.96,6.62,16.49,4.32,33.54,11.96,50.74,16.32Z"/>
      <polygon class="cls-3" points="167.42 72.46 167.42 200.93 172.31 200.93 172.31 207.91 73.51 207.91 73.51 200.93 79.1 200.93 79.1 72.46 76.3 72.46 76.3 67.23 71.41 67.23 71.41 41.75 90.97 41.75 90.97 35.46 84.68 35.46 84.68 26.38 107.72 26.38 107.72 35.46 101.09 35.46 101.09 41.75 176.14 41.75 176.14 67.23 169.86 67.23 169.86 72.46 167.42 72.46"/>
      <polygon class="cls-3" points="303.22 210.71 486.5 211.4 486.84 129.82 412.84 131.46 412.49 146.82 386.3 147.52 386.65 93.06 323.82 93.06 321.72 169.16 308.45 168.47 303.22 210.71"/>
      <line class="cls-5" x1="53.26" y1="209.66" x2="510.41" y2="209.66"/>
      <polygon class="cls-3" points="189.22 208.98 281.49 208.98 275.99 163.93 282.97 158.69 252.31 131.24 224.32 131.46 216.64 125.18 195 143.33 196.74 130.76 198.14 128.32 186.97 127.97 186.62 131.46 189.76 134.95 188.02 147.87 179.64 155.9 189.41 157.99 189.22 208.98"/>
      <g>
        <line class="cls-5" x1="166.82" y1="188.95" x2="166.82" y2="181.48"/>
        <line class="cls-5" x1="166.82" y1="164.56" x2="166.82" y2="157.07"/>
        <line class="cls-5" x1="166.82" y1="140.16" x2="166.82" y2="132.67"/>
        <line class="cls-5" x1="166.82" y1="115.76" x2="166.82" y2="108.28"/>
        <line class="cls-5" x1="166.82" y1="91.37" x2="166.82" y2="83.88"/>
        <line class="cls-5" x1="79.37" y1="188.95" x2="79.37" y2="181.48"/>
        <line class="cls-5" x1="79.37" y1="164.56" x2="79.37" y2="157.07"/>
        <line class="cls-5" x1="79.37" y1="140.16" x2="79.37" y2="132.67"/>
        <line class="cls-5" x1="79.37" y1="115.76" x2="79.37" y2="108.28"/>
        <line class="cls-5" x1="79.37" y1="91.37" x2="79.37" y2="83.88"/>
        <polyline class="cls-5" points="79.37 79.17 79.37 72.99 166.82 72.99 166.82 79.17"/>
        <line class="cls-5" x1="79.37" y1="103.57" x2="79.37" y2="96.08"/>
        <line class="cls-5" x1="79.37" y1="127.96" x2="79.37" y2="120.47"/>
        <line class="cls-5" x1="79.37" y1="152.36" x2="79.37" y2="144.87"/>
        <line class="cls-5" x1="79.37" y1="176.76" x2="79.37" y2="169.28"/>
        <line class="cls-5" x1="79.37" y1="200.23" x2="79.37" y2="193.67"/>
        <line class="cls-5" x1="166.82" y1="103.57" x2="166.82" y2="96.08"/>
        <line class="cls-5" x1="166.82" y1="127.96" x2="166.82" y2="120.47"/>
        <line class="cls-5" x1="166.82" y1="152.36" x2="166.82" y2="144.87"/>
        <line class="cls-5" x1="166.82" y1="176.76" x2="166.82" y2="169.28"/>
        <line class="cls-5" x1="166.82" y1="200.23" x2="166.82" y2="193.67"/>
        <rect class="cls-5" x="75.55" y="67.75" width="95.09" height="4.71"/>
        <rect class="cls-5" x="69.95" y="40" width="106.3" height="27.23"/>
        <polyline class="cls-5" points="89.92 40.52 89.92 34.24 102.49 34.24 102.49 41.04"/>
        <rect class="cls-5" x="85.73" y="27.43" width="20.95" height="6.28"/>
        <g>
          <rect class="cls-5" x="160.81" y="79.17" width="8.9" height="4.71"/>
          <rect class="cls-5" x="160.81" y="91.36" width="8.9" height="4.71"/>
          <rect class="cls-5" x="160.81" y="103.56" width="8.9" height="4.71"/>
          <rect class="cls-5" x="160.81" y="115.76" width="8.9" height="4.71"/>
          <rect class="cls-5" x="160.81" y="127.96" width="8.9" height="4.71"/>
          <rect class="cls-5" x="160.81" y="140.16" width="8.9" height="4.71"/>
          <rect class="cls-5" x="160.81" y="152.36" width="8.9" height="4.71"/>
          <rect class="cls-5" x="160.81" y="164.56" width="8.9" height="4.71"/>
          <rect class="cls-5" x="160.81" y="176.76" width="8.9" height="4.71"/>
          <rect class="cls-5" x="160.81" y="188.96" width="8.9" height="4.71"/>
        </g>
        <g>
          <rect class="cls-5" x="76.27" y="79.17" width="8.9" height="4.71"/>
          <rect class="cls-5" x="76.27" y="91.36" width="8.9" height="4.71"/>
          <rect class="cls-5" x="76.27" y="103.56" width="8.9" height="4.71"/>
          <rect class="cls-5" x="76.27" y="115.76" width="8.9" height="4.71"/>
          <rect class="cls-5" x="76.27" y="127.96" width="8.9" height="4.71"/>
          <rect class="cls-5" x="76.27" y="140.16" width="8.9" height="4.71"/>
          <rect class="cls-5" x="76.27" y="152.36" width="8.9" height="4.71"/>
          <rect class="cls-5" x="76.27" y="164.56" width="8.9" height="4.71"/>
          <rect class="cls-5" x="76.27" y="176.76" width="8.9" height="4.71"/>
          <rect class="cls-5" x="76.27" y="188.96" width="8.9" height="4.71"/>
        </g>
        <polyline class="cls-5" points="73.18 207.91 73.18 200.23 173.02 200.23 173.02 207.91"/>
        <g>
          <line class="cls-8" x1="90.97" y1="84.51" x2="119.24" y2="84.51"/>
          <polyline class="cls-8" points="93.58 85.03 93.58 105.45 115.58 105.45 115.58 85.03"/>
          <line class="cls-8" x1="105.1" y1="85.03" x2="105.1" y2="105.98"/>
          <line class="cls-8" x1="94.11" y1="98.12" x2="116.1" y2="98.12"/>
          <rect class="cls-4" x="88.87" y="105.98" width="31.42" height="3.14"/>
        </g>
        <g>
          <line class="cls-8" x1="126.57" y1="84.51" x2="154.85" y2="84.51"/>
          <polyline class="cls-8" points="130.24 85.03 130.24 105.45 152.23 105.45 152.23 85.03"/>
          <line class="cls-8" x1="140.71" y1="85.03" x2="140.71" y2="105.98"/>
          <line class="cls-8" x1="129.72" y1="98.12" x2="151.71" y2="98.12"/>
          <rect class="cls-4" x="125.53" y="105.98" width="31.42" height="3.14"/>
        </g>
        <g>
          <line class="cls-8" x1="90.97" y1="121.16" x2="119.24" y2="121.16"/>
          <polyline class="cls-8" points="93.58 120.64 93.58 141.06 115.58 141.06 115.58 120.64"/>
          <line class="cls-8" x1="105.1" y1="121.69" x2="105.1" y2="141.58"/>
          <line class="cls-8" x1="94.11" y1="133.73" x2="116.1" y2="133.73"/>
          <rect class="cls-4" x="88.87" y="141.58" width="31.42" height="3.14"/>
        </g>
        <g>
          <line class="cls-8" x1="126.57" y1="121.16" x2="154.85" y2="121.16"/>
          <polyline class="cls-8" points="130.24 120.64 130.24 141.06 152.23 141.06 152.23 120.64"/>
          <line class="cls-8" x1="140.71" y1="121.69" x2="140.71" y2="141.58"/>
          <line class="cls-8" x1="129.72" y1="133.73" x2="151.71" y2="133.73"/>
          <rect class="cls-4" x="125.53" y="141.58" width="31.42" height="3.14"/>
        </g>
        <g>
          <line class="cls-8" x1="90.97" y1="156.77" x2="119.24" y2="156.77"/>
          <polyline class="cls-8" points="93.58 157.29 93.58 177.72 115.58 177.72 115.58 157.29"/>
          <line class="cls-8" x1="105.1" y1="157.29" x2="105.1" y2="177.19"/>
          <line class="cls-8" x1="94.11" y1="169.34" x2="116.1" y2="169.34"/>
          <rect class="cls-4" x="88.87" y="177.19" width="31.42" height="3.14"/>
        </g>
        <g>
          <line class="cls-8" x1="126.57" y1="156.77" x2="154.85" y2="156.77"/>
          <polyline class="cls-8" points="130.24 157.29 130.24 177.72 152.23 177.72 152.23 157.29"/>
          <line class="cls-8" x1="140.71" y1="157.29" x2="140.71" y2="177.19"/>
          <line class="cls-8" x1="129.72" y1="169.34" x2="151.71" y2="169.34"/>
          <rect class="cls-4" x="125.53" y="177.19" width="31.42" height="3.14"/>
        </g>
      </g>
      <g>
        <polygon class="cls-5" points="189.22 176.51 189.22 208.98 244.62 208.98 244.62 154.73 216.65 132.52 189.22 154.73 189.22 171.18 189.22 176.51"/>
        <polyline class="cls-5" points="244.58 156.87 257.82 156.87 216.65 123.89 176.88 156.87 189.22 156.87"/>
        <polyline class="cls-5" points="196.14 139.87 196.14 132.52 188.8 132.52 188.8 146.6"/>
        <polyline class="cls-5" points="188.8 132.52 185.64 132.52 185.64 127.35 199.39 127.35 199.39 132.52 196.14 132.52"/>
        <path class="cls-8" d="M207.16,161.99h19.22s-.67-9.82-10.07-9.82-9.15,9.82-9.15,9.82Z"/>
        <rect class="cls-8" x="214.43" y="182.07" width="22.64" height="13.24"/>
        <line class="cls-8" x1="225.53" y1="181.47" x2="225.53" y2="195.31"/>
        <line class="cls-8" x1="213.96" y1="188.9" x2="237.49" y2="188.9"/>
        <rect class="cls-4" x="211.91" y="196.25" width="27.38" height="3.8"/>
        <rect class="cls-8" x="196.53" y="180.36" width="11.11" height="24.35"/>
        <polyline class="cls-8" points="193.54 208.13 193.54 204.84 211.48 204.84 211.48 208.13"/>
        <circle class="cls-8" cx="204.64" cy="194.88" r="1.28"/>
        <polyline class="cls-5" points="246.03 209.07 281.49 209.07 281.49 164.56 245.41 164.56"/>
        <polyline class="cls-5" points="281.49 164.56 289.6 164.56 252.31 131.24 226.47 131.24"/>
        <g>
          <rect class="cls-8" x="258.46" y="172.63" width="9.35" height="10.42"/>
          <line class="cls-8" x1="257.99" y1="177.84" x2="268.25" y2="177.84"/>
          <rect class="cls-4" x="256.33" y="183.69" width="14.1" height="2.52"/>
        </g>
        <g>
          <rect class="cls-8" x="258.46" y="190.14" width="9.35" height="10.42"/>
          <line class="cls-8" x1="257.99" y1="195.35" x2="268.25" y2="195.35"/>
          <rect class="cls-4" x="256.33" y="201.21" width="14.1" height="2.52"/>
        </g>
      </g>
      <g>
        <polyline class="cls-5" points="377.07 209.66 377.07 167.98 302.52 167.98 302.52 209.66"/>
        <line class="cls-8" x1="303.69" y1="176.73" x2="375.98" y2="176.73"/>
        <polyline class="cls-5" points="321.89 166.81 321.89 91.67 386.46 91.67 386.46 209.66"/>
        <rect class="cls-4" x="330.7" y="99.3" width="11.15" height="29.35"/>
        <rect class="cls-4" x="348.66" y="99.3" width="11.15" height="29.35"/>
        <rect class="cls-4" x="366.62" y="99.3" width="11.15" height="29.35"/>
        <rect class="cls-4" x="330.7" y="132.17" width="11.15" height="29.35"/>
        <rect class="cls-4" x="348.66" y="132.17" width="11.15" height="29.35"/>
        <rect class="cls-4" x="366.62" y="132.17" width="11.15" height="29.35"/>
        <polyline class="cls-5" points="387.3 146.85 412.88 146.85 412.88 129.82 486.84 129.82 486.84 209.66"/>
        <line class="cls-5" x1="412.88" y1="146.85" x2="412.88" y2="209.66"/>
        <line class="cls-5" x1="387.76" y1="176.79" x2="412.88" y2="176.79"/>
        <line class="cls-5" x1="413.8" y1="185.59" x2="486.26" y2="185.59"/>
        <line class="cls-8" x1="395.27" y1="147.98" x2="395.27" y2="176.2"/>
        <line class="cls-8" x1="404.07" y1="147.98" x2="404.07" y2="176.79"/>
        <g>
          <line class="cls-8" x1="414.64" y1="138.63" x2="485.67" y2="138.63"/>
          <line class="cls-8" x1="414.64" y1="145.91" x2="485.67" y2="145.91"/>
          <line class="cls-8" x1="414.64" y1="153.19" x2="485.67" y2="153.19"/>
          <line class="cls-8" x1="414.64" y1="160.47" x2="485.67" y2="160.47"/>
          <line class="cls-8" x1="414.64" y1="167.75" x2="485.67" y2="167.75"/>
          <line class="cls-8" x1="414.64" y1="175.02" x2="485.67" y2="175.02"/>
        </g>
        <line class="cls-8" x1="434.76" y1="186.89" x2="434.76" y2="209.66"/>
        <line class="cls-8" x1="438.71" y1="186.89" x2="438.71" y2="209.66"/>
        <line class="cls-8" x1="461.31" y1="186.89" x2="461.31" y2="209.66"/>
        <line class="cls-8" x1="465.15" y1="186.89" x2="465.15" y2="209.66"/>
        <line class="cls-8" x1="450.01" y1="186.32" x2="450.01" y2="209.66"/>
        <polyline class="cls-8" points="453.18 196.01 453.18 201.29 456.26 201.29"/>
        <polyline class="cls-8" points="446.75 196.01 446.75 201.29 443.67 201.29"/>
      </g>
      <g>
        <path class="cls-1" d="M351.25,196.52v-3.37c.98,0,3.37.35,5.01,3.37h-5.01s0,0,0,0ZM350.21,192.66v4.37c0,.29.23.52.52.52h6.36c.17,0,.34-.09.43-.23.1-.15.11-.33.04-.49-1.22-2.75-3.02-3.88-4.31-4.34-1.42-.5-2.55-.34-2.6-.33-.25.04-.44.26-.44.51Z"/>
        <path class="cls-1" d="M348.45,196.52h-6.88c.27-.43.68-.99,1.29-1.54,1.47-1.33,3.36-1.96,5.6-1.86v3.4s0,0,0,0ZM340.23,196.84c-.06.16-.04.34.05.48.1.14.26.23.43.23h8.26c.29,0,.52-.23.52-.52v-4.4c0-.27-.2-.49-.47-.51-3.45-.3-5.65.99-6.89,2.13-1.35,1.23-1.87,2.54-1.89,2.6Z"/>
        <path class="cls-1" d="M350.86,198.8h1.32c.24,0,.44.2.44.44,0,.24-.2.44-.44.44h-1.32c-.24,0-.44-.2-.44-.44s.2-.44.44-.44Z"/>
        <path class="cls-1" d="M340.72,198.8h1.32c.24,0,.44.2.44.44,0,.24-.2.44-.44.44h-1.32c-.24,0-.44-.2-.44-.44s.2-.44.44-.44Z"/>
        <path class="cls-1" d="M336.27,200.15c.04-.35.15-.58.33-.69.1-.06.21-.09.33-.1l-.17,1.73c-.12-.04-.24-.1-.33-.2-.14-.16-.2-.4-.16-.74ZM336.37,203.52v-.6h.4c0,.18.01.36.02.51,0,.03,0,.06,0,.09h-.43s0,0,0,0ZM337.94,200.21c.45-3.26,2.44-6.34,4.95-7.67,2.43-1.29,5.17-1.44,7.04-1.33,1.74.09,4.93.55,6.69,2.52.45.51.8,1.09,1.17,1.7.08.14.17.28.25.42.02.03.05.08.09.16.6,1.1.85,1.44,1.26,1.44h2.24c2.47,0,4.49,2.21,4.49,4.92v.95c0,.14-.02.27-.06.39h-1.84c-.5-1.45-1.88-2.5-3.5-2.5s-3,1.05-3.5,2.5h-10.25c-.5-1.45-1.88-2.5-3.5-2.5s-3,1.05-3.5,2.5h-.57s-1.52,0-1.52,0c-.02-.06-.03-.12-.05-.18,0-.04-.01-.09-.01-.13,0-.14-.01-.3-.02-.47-.02-.76,0-1.74.13-2.7ZM342.27,204.89c0-.66.53-1.19,1.19-1.19s1.19.53,1.19,1.19c0,.19-.04.36-.12.52-.19.4-.6.68-1.07.68s-.88-.28-1.07-.68c-.08-.16-.12-.33-.12-.52ZM345.07,208.22c1.08-.53,1.87-1.57,2.05-2.81h9.93c.17,1.24.96,2.28,2.05,2.81h-14.03ZM359.52,204.89c0-.66.53-1.19,1.19-1.19s1.19.53,1.19,1.19c0,.19-.04.36-.12.52-.19.4-.6.68-1.07.68s-.88-.28-1.07-.68c-.08-.16-.12-.33-.12-.52ZM367.12,201.33c.12.02.25.07.35.15.16.13.25.37.26.71,0,.35-.07.6-.23.74-.09.08-.2.12-.31.14l-.08-1.74ZM344.88,190.67c-.83.22-1.66.54-2.47.96-2.38,1.26-4.28,3.79-5.12,6.71-.32-.04-.8-.03-1.24.25-.45.29-.72.77-.8,1.44-.1.82.18,1.3.43,1.57.11.12.23.21.35.28h-.18c-.29,0-.52.23-.52.52v1.63c0,.29.23.52.52.52h.31v.05c0,.42.34.76.76.76h1.39c.14.03.29.05.44.05h1.06c.17,1.24.96,2.28,2.05,2.81h-5.43c-.29,0-.52.23-.52.52,0,.29.23.52.52.52h28.47c.29,0,.52-.23.52-.52,0-.29-.23-.52-.52-.52h-2.58c1.08-.53,1.87-1.57,2.05-2.81h.8c.15,0,.29-.02.43-.05h1.38c.42,0,.76-.34.76-.76v-.14c0-.16-.05-.31-.14-.43.19-.06.39-.16.57-.32.4-.35.6-.87.58-1.54-.02-.82-.37-1.26-.65-1.49-.44-.35-.98-.4-1.31-.38-.79-2.25-2.81-3.86-5.17-3.86h-2.05c-.11-.15-.29-.45-.54-.91-.05-.1-.09-.17-.11-.2-.08-.14-.16-.27-.25-.41-.38-.63-.77-1.28-1.28-1.86-1.12-1.26-2.74-1.88-4.22-2.38-3.53-1.18-8.29,0-8.29,0Z"/>
      </g>
      <g>
        <circle class="cls-7" cx="67.93" cy="176.4" r="18.85"/>
        <circle class="cls-4" cx="72.64" cy="178.7" r="12.04"/>
        <line class="cls-5" x1="67.93" y1="195.25" x2="67.93" y2="208.87"/>
        <line class="cls-8" x1="67.93" y1="195.25" x2="67.93" y2="172.56"/>
        <line class="cls-8" x1="67.86" y1="186.18" x2="74.84" y2="186.18"/>
        <line class="cls-8" x1="67.93" y1="180.59" x2="60.94" y2="180.59"/>
      </g>
      <g>
        <circle class="cls-7" cx="291.35" cy="176.4" r="18.85"/>
        <circle class="cls-4" cx="296.06" cy="178.7" r="12.04"/>
        <line class="cls-5" x1="291.35" y1="195.25" x2="291.35" y2="208.87"/>
        <line class="cls-8" x1="291.35" y1="195.25" x2="291.35" y2="172.56"/>
        <line class="cls-8" x1="291.28" y1="186.18" x2="298.26" y2="186.18"/>
        <line class="cls-8" x1="291.35" y1="180.59" x2="284.37" y2="180.59"/>
      </g>
      <g>
        <circle class="cls-7" cx="495.22" cy="176.4" r="18.85"/>
        <circle class="cls-4" cx="499.94" cy="178.7" r="12.04"/>
        <line class="cls-5" x1="495.22" y1="195.25" x2="495.22" y2="208.87"/>
        <line class="cls-8" x1="495.22" y1="195.25" x2="495.22" y2="172.56"/>
        <line class="cls-8" x1="495.15" y1="186.18" x2="502.14" y2="186.18"/>
        <line class="cls-8" x1="495.22" y1="180.59" x2="488.24" y2="180.59"/>
      </g>
      <g>
        <line class="cls-6" x1="403.72" y1="233.32" x2="412.86" y2="231.06"/>
        <line class="cls-6" x1="409.42" y1="236.76" x2="407.16" y2="227.62"/>
      </g>
      <g>
        <line class="cls-6" x1="433.13" y1="241.25" x2="436.4" y2="235.54"/>
        <line class="cls-6" x1="437.62" y1="240.03" x2="431.92" y2="236.76"/>
      </g>
      <circle class="cls-6" cx="179.93" cy="6.98" r="3.33"/>
      <g>
        <line class="cls-6" x1="1" y1="206.46" x2="10.14" y2="204.2"/>
        <line class="cls-6" x1="6.7" y1="209.9" x2="4.44" y2="200.76"/>
      </g>
      <g>
        <line class="cls-6" x1="590.92" y1="107.48" x2="594.19" y2="101.78"/>
        <line class="cls-6" x1="595.41" y1="106.27" x2="589.71" y2="103"/>
      </g>
      <g>
        <line class="cls-6" x1="385.4" y1="238.65" x2="391.03" y2="235.24"/>
        <line class="cls-6" x1="389.92" y1="239.76" x2="386.51" y2="234.14"/>
      </g>
      <g>
        <line class="cls-6" x1="20.95" y1="216.98" x2="24.22" y2="211.27"/>
        <line class="cls-6" x1="25.44" y1="215.76" x2="19.74" y2="212.49"/>
      </g>
      <circle class="cls-6" cx="576.67" cy="91.79" r="5.53"/>
      <circle class="cls-6" cx="215.4" cy="6.53" r="5.53"/>
      <circle class="cls-6" cx="521.46" cy="23.47" r="3.33"/>
      <g>
        <line class="cls-6" x1="188.99" y1="19.21" x2="198.13" y2="16.94"/>
        <line class="cls-6" x1="194.69" y1="22.65" x2="192.43" y2="13.51"/>
      </g>
    </g>
  </g>
</svg>