<?xml version="1.0" encoding="UTF-8"?>
<svg id="Layer_2" data-name="Layer 2" xmlns="http://www.w3.org/2000/svg" viewBox="0 0 16.54 16.49">
  <defs>
    <style>
      .cls-1 {
        fill: #af9171;
        stroke-width: 0px;
      }
    </style>
  </defs>
  <g id="results_page" data-name="results page">
    <path class="cls-1" d="M6.43,2c.4,0,.72.16.72.16.38.18.69.49.69.49.38.38.63.94.63.94.25.56.23,1.18.23,1.18-.02.62-.42,1.02-.42,1.02-.32.32-.75.34-.75.34-.03,0-.06,0-.09,0-.39,0-.72-.16-.72-.16-.38-.18-.69-.49-.69-.49-.39-.39-.63-.94-.63-.94-.25-.56-.23-1.18-.23-1.18.02-.62.42-1.02.42-1.02.32-.32.75-.34.75-.34.03,0,.06,0,.09,0M10.78,2.68c.08,0,.13,0,.13,0,.53.09.94.51.94.51.39.39.61.97.61.97.22.59.17,1.22.17,1.22-.05.63-.45,1.03-.45,1.03-.28.28-.62.32-.8.32-.08,0-.13,0-.13,0-.53-.09-.94-.51-.94-.51-.39-.39-.61-.98-.61-.98-.23-.59-.17-1.22-.17-1.22.05-.63.45-1.03.45-1.03.28-.28.61-.32.79-.32M3.44,5.17c.59,0,1.1.23,1.1.23.56.25.95.63.95.63.31.31.49.69.49.69.18.38.15.81.15.81-.03.43-.34.75-.34.75-.4.4-1.02.42-1.02.42-.03,0-.06,0-.08,0-.59,0-1.1-.23-1.1-.23-.56-.25-.94-.63-.94-.63-.31-.31-.49-.69-.49-.69-.18-.38-.15-.81-.15-.81.03-.43.34-.75.34-.75.4-.4,1.02-.42,1.02-.42.02,0,.05,0,.07,0M11.01,7.23c.78,0,1.38.12,1.38.12,1.21.25,1.8.85,1.8.85.24.24.31.49.31.49.07.25-.02.49-.02.49-.09.24-.23.44-.23.44-.14.2-.37.42-.37.42-.35.35-1.21.74-1.21.74-.86.39-1.18.72-1.18.72-.34.34-.77,1.23-.77,1.23-.43.89-.81,1.28-.81,1.28-.37.37-.71.48-.98.48-.44,0-.73-.29-.73-.29-.45-.45-.71-1.29-.71-1.29-.26-.84-.28-1.73-.28-1.73-.02-.89.22-1.74.22-1.74.23-.85.7-1.31.7-1.31.61-.61,1.83-.82,1.83-.82.36-.06.72-.08,1.04-.08M4.22,9.53c.55,0,1.03.18,1.03.18.59.23.98.61.98.61.42.42.5.94.5.94.09.53-.31.93-.31.93-.4.4-1.03.45-1.03.45-.07,0-.13,0-.19,0-.55,0-1.02-.18-1.02-.18-.59-.22-.97-.61-.97-.61-.42-.42-.51-.94-.51-.94-.09-.53.31-.93.31-.93.4-.4,1.03-.45,1.03-.45.06,0,.13,0,.19,0M6.43,0c-.07,0-.14,0-.21,0-.28.02-1.25.13-2.04.93-.45.45-.93,1.26-1,2.25-.43.03-1.45.2-2.25,1-.2.2-.86.94-.93,2.04-.01.22-.03,1.01.34,1.79.07.15.33.66.79,1.14-.34.55-.55,1.29-.41,2.1.05.27.26,1.22,1.06,2.02.11.11.74.71,1.68,1.06.14.05.86.31,1.73.31.12,0,.24,0,.36-.01.1,0,.26-.03.47-.07.19.35.44.73.76,1.05.2.2.96.87,2.14.87.61,0,1.52-.18,2.4-1.07.15-.15.67-.71,1.2-1.83.11-.23.28-.52.37-.66.09-.06.28-.18.6-.33.36-.16,1.25-.6,1.8-1.15.08-.08.36-.37.58-.68.07-.1.31-.45.48-.91.09-.26.29-.94.07-1.73-.06-.22-.27-.81-.82-1.35-.1-.1-.45-.43-1.05-.75.03-.15.06-.31.07-.48.02-.18.07-1.13-.3-2.1-.09-.23-.43-1.04-1.06-1.68-.2-.2-.95-.88-2.02-1.06-.1-.02-.26-.04-.47-.04-.59,0-1.15.16-1.63.45-.21-.19-.62-.53-1.14-.78-.17-.08-.8-.35-1.58-.35h0Z"/>
  </g>
</svg>